<svg version="1.1" id="Layer_1" xmlns="http://www.w3.org/2000/svg" xmlns:xlink="http://www.w3.org/1999/xlink" x="0px" y="0px"
	 width="100%" viewBox="0 0 501 486" enable-background="new 0 0 501 486" xml:space="preserve">
<path fill="#000000" opacity="1.000000" stroke="none" 
	d="
M502.000000,128.000000 
	C502.000000,247.999969 502.000000,367.499939 502.000000,486.999939 
	C335.000061,486.999939 168.000137,486.999939 1.000154,486.999969 
	C1.000103,325.000122 1.000103,163.000214 1.000051,1.000241 
	C167.999863,1.000160 334.999725,1.000160 501.999786,1.000080 
	C502.000000,43.166668 502.000000,85.333336 502.000000,128.000000 
M175.291534,472.430115 
	C175.507416,472.670776 175.744888,472.887848 176.303284,473.691132 
	C178.795792,477.623993 182.449615,478.537994 186.729294,477.572174 
	C194.681900,475.777588 202.613388,473.889618 210.561462,472.074768 
	C238.146530,465.776031 265.756378,459.582306 293.285828,453.049530 
	C295.779205,452.457855 297.763397,449.720276 299.999634,447.045715 
	C299.991547,382.041382 299.983490,317.037079 300.016083,251.106384 
	C299.373322,237.152634 298.730591,223.198898 298.193726,208.334061 
	C298.489960,196.562134 298.786163,184.790207 299.954285,173.008972 
	C308.366638,172.037933 316.772888,171.009933 325.192474,170.106491 
	C350.936890,167.344025 376.694855,164.703049 402.419769,161.771149 
	C404.742126,161.506470 406.864288,159.485550 409.451447,157.484772 
	C409.591888,151.042633 409.732300,144.600494 409.936890,137.202927 
	C409.913605,119.748238 409.890320,102.293556 409.883911,83.931450 
	C409.933746,79.460274 410.130219,74.984741 409.997223,70.519005 
	C409.821014,64.603157 409.387268,58.694973 408.883972,52.123436 
	C405.577576,49.822289 402.561035,46.793999 398.916473,45.341228 
	C379.266663,37.508583 359.630371,29.578392 339.653046,22.652065 
	C324.900208,17.537127 310.493561,9.617087 292.969879,13.200645 
	C289.692352,13.174678 286.414856,13.148709 282.272034,13.148637 
	C258.470490,14.846557 234.668930,16.544477 209.982315,18.202919 
	C206.475754,18.235752 202.969177,18.268585 198.659485,18.412224 
	C197.116653,18.662104 195.573807,18.911983 193.095673,19.097647 
	C189.944077,19.043518 186.780487,18.785131 183.642868,18.969225 
	C166.436829,19.978760 149.223709,20.921291 132.039963,22.238350 
	C120.321762,23.136501 108.647667,24.610102 96.158691,25.832018 
	C85.787979,26.258587 75.417267,26.685158 64.130356,27.061142 
	C60.399525,27.356478 56.668690,27.651814 52.198956,27.965080 
	C51.460182,27.987518 50.721405,28.009956 49.056488,28.005251 
	C38.052963,28.698647 27.049435,29.392042 15.297907,30.245531 
	C10.499843,30.680080 9.033047,33.465496 9.061725,38.051731 
	C9.201062,60.334877 8.915120,82.622284 9.219101,104.902191 
	C9.404335,118.478790 10.843737,132.046448 10.787273,145.614243 
	C10.764081,151.187164 12.623582,154.088745 17.107983,156.682358 
	C33.960968,166.429398 50.762562,176.274246 67.371185,186.429550 
	C72.561050,189.602890 77.761017,190.407242 83.567085,189.731277 
	C97.769684,188.077805 111.981743,186.499359 126.202698,185.012192 
	C133.517639,184.247238 134.036606,184.841675 134.103378,192.467758 
	C134.205414,204.117905 134.303375,215.768082 134.344360,228.273621 
	C134.278580,238.127151 134.212799,247.980698 134.170227,258.699951 
	C134.781189,269.791656 135.909088,280.883545 135.904968,291.975037 
	C135.893204,323.671356 135.421478,355.367523 135.088287,387.842010 
	C135.080276,388.883514 135.072250,389.925018 135.043289,391.650085 
	C135.039688,392.105988 135.036087,392.561890 135.002487,393.950928 
	C135.008499,404.630005 135.014511,415.309052 134.998184,426.866364 
	C135.009705,428.916168 135.021210,430.965942 135.129532,433.638855 
	C135.425125,434.419708 135.720718,435.200592 136.291016,436.553650 
	C137.168015,437.719330 138.045013,438.884979 139.446762,440.061096 
	C139.621124,440.046722 139.795471,440.032379 139.945419,440.083496 
	C139.945419,440.083496 139.976883,440.145905 140.202652,440.759155 
	C149.456436,449.187592 158.710236,457.616028 168.322632,466.480164 
	C168.861908,467.003204 169.401169,467.526215 170.336746,468.565399 
	C171.869568,469.716827 173.402390,470.868225 174.965286,472.065887 
	C174.965286,472.065887 175.012497,472.037292 175.291534,472.430115 
M401.939545,324.561615 
	C398.522491,320.927155 394.995789,317.388458 391.716675,313.633545 
	C387.796387,309.144440 383.257111,307.872681 377.948364,310.562836 
	C376.783264,311.153259 375.476410,313.152191 375.611328,314.347046 
	C376.519867,322.393616 377.808258,330.396973 378.956329,338.416809 
	C380.127838,346.600861 381.466461,354.767212 382.369751,362.981140 
	C382.911469,367.907288 383.671875,368.701111 388.477203,368.061676 
	C393.799042,367.353516 393.046173,363.502289 392.650330,360.121979 
	C391.722321,352.197510 390.441315,344.315002 389.424835,336.399872 
	C389.173767,334.444946 389.387360,332.430328 389.387360,330.443146 
	C389.975861,330.214813 390.564392,329.986511 391.152893,329.758179 
	C396.075500,334.570129 401.090729,339.291718 405.895660,344.218384 
	C411.115631,349.570587 416.061737,355.189728 421.277863,360.545807 
	C424.622253,363.979919 428.737640,363.041382 432.438202,361.399200 
	C433.645386,360.863464 434.893311,358.426758 434.707916,357.049957 
	C432.556366,341.074432 430.245453,325.117584 427.706116,309.198944 
	C427.049255,305.081268 423.267853,304.446350 419.881073,304.571167 
	C416.428131,304.698456 416.265289,307.585480 416.572113,310.158081 
	C417.335571,316.559814 418.357574,322.930634 419.131592,329.331299 
	C419.615997,333.336914 419.838989,337.374146 420.179291,341.397156 
	C419.544403,341.597321 418.909515,341.797455 418.274628,341.997620 
	C412.998627,336.350464 407.722595,330.703339 401.939545,324.561615 
M462.229980,312.710693 
	C459.160706,315.856659 458.140778,320.890228 453.165710,323.220001 
	C452.234314,317.087219 451.021881,311.749969 450.739502,306.363953 
	C450.532776,302.420746 449.782288,300.385895 445.318604,300.859711 
	C441.109467,301.306458 438.768097,302.795105 439.434357,307.472504 
	C441.642151,322.972595 443.797363,338.480499 445.882111,353.997589 
	C446.391174,357.786591 447.377991,360.324005 452.141907,359.513306 
	C456.797058,358.721100 458.523376,356.606018 457.327972,351.970612 
	C456.667175,349.408325 456.144379,346.752380 456.048767,344.120880 
	C455.973206,342.042084 456.227264,339.748871 457.066345,337.879181 
	C459.152588,333.230591 461.359802,332.810059 464.888306,336.420074 
	C469.191406,340.822601 473.503784,345.278229 477.247192,350.145355 
	C480.057709,353.799561 483.094604,355.460907 487.493835,354.089844 
	C489.122192,353.582367 490.623657,352.667786 492.182983,351.938843 
	C491.354095,350.396149 490.786621,348.620209 489.652863,347.349579 
	C483.445007,340.392365 477.162781,333.498322 470.768372,326.712372 
	C468.103302,323.884125 468.152802,321.321198 470.321503,318.270233 
	C473.699463,313.518158 477.003754,308.700378 480.053284,303.734833 
	C481.246307,301.792236 481.666321,299.374878 482.438385,297.173767 
	C479.713837,297.233948 476.917328,296.948578 474.294006,297.494812 
	C472.905182,297.784027 471.587128,299.348969 470.637177,300.633759 
	C467.864868,304.383209 465.293884,308.281555 462.229980,312.710693 
M332.181763,329.686462 
	C331.585571,332.278595 330.994476,334.871948 330.392273,337.462677 
	C327.870544,348.311951 325.191711,359.129059 322.964722,370.038422 
	C322.568481,371.979340 324.043427,374.302185 324.654327,376.448669 
	C327.437439,375.473083 330.374146,374.777283 332.924469,373.377563 
	C333.880096,372.853058 334.166901,370.721802 334.362244,369.269836 
	C335.079834,363.936462 337.454285,360.591583 343.394104,360.908661 
	C344.345062,360.959412 345.318176,360.292694 346.292480,360.255127 
	C356.033661,359.879486 359.174164,355.885559 363.943848,367.574219 
	C364.005798,367.726074 364.107483,367.864105 364.203766,367.999207 
	C366.313599,370.959625 371.219269,371.862518 374.499908,369.646332 
	C378.070435,367.234344 375.082336,364.946411 373.959808,362.879578 
	C366.264252,348.710815 358.321472,334.674561 350.768860,320.430969 
	C348.546692,316.240112 345.655487,314.735168 341.145172,315.212524 
	C336.599487,315.693665 334.368958,318.146393 333.785614,322.548126 
	C333.502899,324.681152 332.849121,326.764984 332.181763,329.686462 
z"/>
<path fill="#141413" opacity="1.000000" stroke="none" 
	d="
M135.032715,433.015747 
	C135.021210,430.965942 135.009705,428.916168 135.253372,426.147797 
	C135.659683,415.012238 135.820877,404.595306 135.922012,394.177826 
	C135.925735,393.794067 135.342285,393.404602 135.032471,393.017792 
	C135.036087,392.561890 135.039688,392.105988 135.240540,391.124298 
	C135.335419,389.420258 135.233047,388.242004 135.130676,387.063751 
	C135.421478,355.367523 135.893204,323.671356 135.904968,291.975037 
	C135.909088,280.883545 134.781189,269.791656 134.401703,258.009155 
	C135.049911,249.046890 135.560883,240.778168 135.804855,232.501572 
	C135.854355,230.822357 134.896500,229.113464 134.403061,227.418243 
	C134.303375,215.768082 134.205414,204.117905 134.103378,192.467758 
	C134.036606,184.841675 133.517639,184.247238 126.202698,185.012192 
	C111.981743,186.499359 97.769684,188.077805 83.567085,189.731277 
	C77.761017,190.407242 72.561050,189.602890 67.371185,186.429550 
	C50.762562,176.274246 33.960968,166.429398 17.107983,156.682358 
	C12.623582,154.088745 10.764081,151.187164 10.787273,145.614243 
	C10.843737,132.046448 9.404335,118.478790 9.219101,104.902191 
	C8.915120,82.622284 9.201062,60.334877 9.061725,38.051731 
	C9.033047,33.465496 10.499843,30.680080 15.931338,30.396776 
	C21.260334,30.692749 25.994028,31.278080 30.642252,30.875805 
	C37.122536,30.314976 43.538910,29.015667 49.982632,28.032398 
	C50.721405,28.009956 51.460182,27.987518 52.957211,28.096212 
	C55.477123,28.481760 57.279938,29.094641 58.989853,28.898336 
	C61.049969,28.661829 63.031185,27.738014 65.046555,27.111727 
	C75.417267,26.685158 85.787979,26.258587 96.565109,26.177261 
	C96.982018,26.983639 96.992500,27.444771 96.702057,28.122189 
	C93.924706,28.871962 91.448296,29.405449 88.812157,29.776794 
	C87.761086,29.757456 86.869736,29.900259 85.587326,30.046932 
	C84.153366,30.053730 83.110481,30.056654 81.681412,29.920494 
	C77.521919,30.201920 73.748619,30.622427 69.561974,31.047121 
	C67.496826,31.084209 65.845016,31.117111 63.806274,31.002787 
	C60.273182,31.248289 57.127022,31.641018 53.565453,32.038761 
	C41.458603,33.056046 29.767159,34.068314 17.938614,34.969971 
	C17.654037,34.797699 17.509748,34.697941 17.358173,34.685257 
	C17.211542,34.672989 17.057411,34.750366 16.906576,34.788368 
	C18.676983,36.506062 20.447390,38.223759 22.494915,40.124119 
	C33.536694,48.422848 44.158825,56.740131 55.155300,64.528900 
	C58.338528,66.783577 62.532959,68.492630 66.374542,68.741287 
	C73.136238,69.178970 79.983589,68.307640 86.794357,67.970100 
	C105.736519,67.031349 124.678490,66.088722 143.620209,65.141212 
	C177.846970,63.429100 212.075867,61.757645 246.299179,59.978855 
	C264.080658,59.054646 281.859955,58.045506 299.616486,56.749329 
	C301.508911,56.611187 303.241577,54.285316 305.284790,52.709297 
	C307.589355,49.209923 307.547272,46.072826 305.080536,42.613728 
	C305.120667,40.447727 305.168518,38.715084 305.586121,36.985794 
	C306.956451,36.991249 307.957001,36.993359 308.969849,37.463879 
	C308.984772,40.926178 308.989014,43.920067 308.989777,46.913952 
	C308.992035,55.459835 310.231842,56.773392 318.845764,56.415176 
	C331.098572,55.905647 343.343231,55.200069 355.822327,54.734886 
	C359.065918,55.859795 362.078552,56.828064 364.740295,57.914566 
	C355.263672,59.029442 346.138031,60.026085 336.765930,60.796135 
	C331.155884,59.109585 325.929535,59.105564 320.523590,62.035522 
	C308.892853,61.924984 308.894897,61.924812 309.825104,73.069237 
	C309.879517,73.720917 309.859192,74.378838 309.676208,74.825821 
	C308.936676,74.067223 308.394592,73.516647 307.728210,72.617325 
	C305.775177,64.389534 304.543549,62.862526 299.392700,63.163803 
	C288.297028,63.812786 277.211243,64.634171 266.123688,65.417053 
	C249.223328,66.610374 232.330627,67.920013 215.423523,69.006920 
	C204.998383,69.677124 194.538773,69.830276 184.119354,70.565620 
	C170.023331,71.560440 155.964081,73.090439 141.864380,74.014114 
	C130.763153,74.741356 119.620651,74.814217 108.503700,75.332672 
	C97.099930,75.864502 85.708832,76.671547 74.304359,77.183884 
	C68.958054,77.424065 66.329277,79.192741 66.095612,83.774567 
	C65.638145,92.744614 65.367844,101.724213 64.998177,111.085785 
	C64.985054,112.235435 64.993835,112.999161 64.997162,114.223755 
	C65.015564,123.286949 65.135643,123.446548 72.097389,124.462585 
	C72.054893,125.195534 72.027481,125.614632 71.664474,126.204132 
	C66.987000,126.943596 64.420769,128.994614 64.959198,133.797501 
	C65.084824,134.918152 64.865746,136.077423 64.579536,137.472534 
	C64.248497,141.986084 64.143196,146.246033 64.020172,150.942673 
	C63.996807,157.030273 63.963570,162.681335 63.991596,168.332092 
	C64.041634,178.420319 71.185944,184.819870 81.229210,183.646545 
	C111.251488,180.139069 141.267593,176.578690 171.281097,172.996948 
	C172.427490,172.860138 173.522018,172.288589 175.865326,171.515732 
	C163.909500,162.203033 152.951172,153.667313 141.998810,144.765930 
	C141.953110,143.675018 141.901443,142.949768 142.215515,142.153564 
	C143.800156,141.851624 145.019058,141.620605 146.243042,141.720306 
	C147.350189,143.365753 148.452286,144.680527 149.868561,146.066681 
	C159.455933,152.869675 168.620209,159.758759 178.041977,166.275589 
	C183.973297,170.378143 186.213699,175.585403 186.090790,182.786118 
	C185.883926,194.905655 186.546158,207.040009 186.595581,219.424469 
	C186.246780,226.621292 186.145203,233.561783 186.095062,240.919312 
	C186.423904,251.985641 186.886627,262.634064 186.938004,273.284424 
	C187.029526,292.256226 186.872253,311.229187 186.592270,330.465820 
	C186.236145,343.074646 186.103043,355.419281 186.002365,367.764160 
	C186.000198,368.031372 186.370178,368.301605 186.565338,369.014282 
	C186.438461,387.257721 186.312790,405.057343 185.890808,422.753784 
	C183.361237,423.103668 181.127975,423.556702 178.914185,423.540344 
	C178.998169,401.604156 179.107544,380.137390 179.118317,358.670593 
	C179.144638,306.215729 179.129150,253.760834 179.119324,201.305954 
	C179.118179,195.161987 179.140427,189.015457 178.971069,182.875092 
	C178.878281,179.510345 177.083862,178.400238 173.622223,178.922821 
	C165.407272,180.162949 157.151825,181.173920 148.887558,182.035904 
	C142.298431,182.723175 141.043259,183.759766 141.013733,190.289948 
	C140.939926,206.608994 140.943771,222.928436 140.937210,239.247726 
	C140.918167,286.539154 140.909332,333.830597 140.655991,381.387939 
	C139.966354,383.380005 139.142548,385.102905 139.127411,386.832886 
	C139.007065,400.593903 138.936432,414.357574 139.114685,428.117004 
	C139.149933,430.838104 140.323257,433.544434 141.014114,436.525757 
	C140.696609,437.911255 140.336746,439.028564 139.976868,440.145905 
	C139.976883,440.145905 139.945419,440.083496 139.827179,440.042725 
	C139.445267,439.994171 139.182953,440.010406 138.922012,440.050659 
	C138.045013,438.884979 137.168015,437.719330 136.202850,436.030945 
	C135.754028,434.677399 135.393372,433.846588 135.032715,433.015747 
M15.253004,119.603897 
	C13.529469,127.971825 12.706100,136.326141 15.852333,145.346634 
	C17.761652,147.515564 19.670971,149.684479 21.904144,152.350739 
	C22.943003,152.897552 23.981861,153.444366 25.668718,154.237137 
	C27.107391,155.052277 28.569681,155.828690 29.980820,156.688995 
	C37.898087,161.515884 45.768204,166.421249 53.726536,171.179199 
	C57.839771,173.638336 59.044918,173.011520 59.007214,168.183792 
	C58.967358,163.080933 58.431870,157.981964 58.540699,152.510986 
	C58.323483,150.934616 58.106266,149.358231 57.924801,146.893295 
	C57.943752,140.676590 57.962704,134.459900 58.116577,127.378006 
	C57.738968,121.907211 57.361355,116.436409 57.016441,110.034332 
	C57.243042,103.909225 57.782223,97.775955 57.622368,91.660950 
	C57.387554,82.678734 56.653938,74.166931 48.002972,68.008827 
	C39.417339,61.897232 31.897945,54.287777 23.672251,46.648491 
	C22.034401,45.457272 20.396551,44.266056 18.276529,42.708015 
	C16.159761,41.535484 13.428220,37.713779 12.761076,44.722382 
	C13.090354,52.725594 13.419633,60.728806 13.825762,69.691925 
	C13.887346,74.118584 13.948931,78.545250 13.717091,83.750488 
	C13.993366,90.680191 14.269642,97.609886 14.656275,105.521706 
	C14.743998,108.152634 14.831721,110.783562 14.765547,113.924171 
	C15.097820,115.231613 15.430094,116.539062 15.659264,118.471779 
	C15.613868,118.677834 15.568471,118.883888 15.253004,119.603897 
z"/>
<path fill="#131313" opacity="1.000000" stroke="none" 
	d="
M178.894730,424.009735 
	C181.127975,423.556702 183.361237,423.103668 185.874329,422.794556 
	C186.154160,422.938507 186.093033,422.999054 185.893555,423.325073 
	C185.139938,425.870758 184.138077,428.084137 184.106735,430.311188 
	C183.943634,441.903259 183.931747,453.500366 184.118164,465.091675 
	C184.149963,467.069000 185.398468,469.026794 186.478180,470.944214 
	C213.914795,464.928772 240.958130,458.962708 268.318359,452.944244 
	C269.445099,452.614960 270.254883,452.338074 271.469666,452.026367 
	C277.710663,450.670624 283.577942,449.466675 289.354736,447.924011 
	C290.430664,447.636688 291.143219,445.988678 292.013611,444.981750 
	C292.003754,444.994904 291.985901,445.020752 292.241333,444.746155 
	C293.001160,443.097961 293.838379,441.751282 293.952148,440.346039 
	C294.434998,434.381134 295.140167,428.385162 294.953308,422.425964 
	C294.625824,411.984192 293.315094,401.568359 293.118774,391.128448 
	C292.809113,374.659210 292.993774,358.178284 293.135498,341.703705 
	C293.233978,330.253906 293.675629,318.807373 293.837524,307.357605 
	C293.919617,301.550018 293.685150,295.738647 293.657562,289.928680 
	C293.558838,269.139038 293.487335,248.349258 293.592285,227.306000 
	C294.180298,220.010818 294.712280,212.972519 294.893829,205.925201 
	C294.941162,204.087936 293.896637,202.222549 293.438904,200.061066 
	C294.313446,198.780228 295.102661,197.808411 295.927002,197.267380 
	C296.670685,201.547165 297.379242,205.396164 298.087830,209.245148 
	C298.730591,223.198898 299.373322,237.152634 299.731995,251.831299 
	C298.962494,254.443375 298.055389,256.329987 298.052948,258.217773 
	C297.973938,319.327179 297.961731,380.436768 298.061829,441.546112 
	C298.065338,443.691559 299.315125,445.834930 299.984070,447.979279 
	C297.763397,449.720276 295.779205,452.457855 293.285828,453.049530 
	C265.756378,459.582306 238.146530,465.776031 210.561462,472.074768 
	C202.613388,473.889618 194.681900,475.777588 186.729294,477.572174 
	C182.449615,478.537994 178.795792,477.623993 175.991974,473.207489 
	C175.463257,472.489807 175.240540,472.260956 175.012497,472.037292 
	C175.012497,472.037292 174.965286,472.065887 174.837921,471.737579 
	C173.120529,470.289276 171.530472,469.169250 169.940430,468.049255 
	C169.401169,467.526215 168.861908,467.003204 168.382294,466.051605 
	C169.624222,464.434387 170.806488,463.245697 172.191544,462.231018 
	C172.901230,462.908325 173.408127,463.411621 174.040512,464.252014 
	C175.588013,467.747528 177.284027,470.160828 181.084351,466.745911 
	C180.818726,457.676636 180.520020,448.957825 180.080536,440.246124 
	C179.858063,435.836273 179.381210,431.439209 179.038086,426.605072 
	C179.030685,425.598114 179.004547,425.022491 178.950745,424.338867 
	C178.923096,424.230865 178.894730,424.009735 178.894730,424.009735 
z"/>
<path fill="#131313" opacity="1.000000" stroke="none" 
	d="
M409.079437,158.280228 
	C406.864288,159.485550 404.742126,161.506470 402.419769,161.771149 
	C376.694855,164.703049 350.936890,167.344025 325.192474,170.106491 
	C316.772888,171.009933 308.366638,172.037933 299.183289,173.099945 
	C297.562042,173.528976 296.711792,173.867020 295.568787,174.052338 
	C292.844757,171.722031 290.413483,169.544464 288.001892,166.963943 
	C288.031616,166.024673 288.041687,165.488327 288.398956,165.098328 
	C291.302582,165.808334 293.870453,166.887604 296.413147,166.831329 
	C302.205933,166.703094 307.994263,166.099503 313.770447,165.544098 
	C333.087311,163.686661 352.416138,161.928391 371.702362,159.789536 
	C379.545441,158.919739 387.290894,157.169693 395.325317,155.697723 
	C396.087616,155.382309 396.605377,155.189285 397.524536,154.969086 
	C399.830841,153.734726 401.735748,152.527557 403.792786,151.083618 
	C404.992401,144.276993 406.411194,137.694016 403.335510,130.991638 
	C403.626434,130.163162 403.835083,129.615784 404.178955,128.744507 
	C404.543457,127.280121 404.772705,126.139641 405.002350,124.641068 
	C405.000183,123.805550 404.997650,123.328117 404.983337,122.435425 
	C404.979614,120.612106 404.987640,119.204025 405.001221,117.340103 
	C404.680786,99.016457 404.358612,81.148590 404.026855,63.280895 
	C403.909729,56.971687 403.438049,56.490746 396.952972,55.513840 
	C397.598206,52.793728 399.990509,49.210064 393.890411,50.660057 
	C370.107422,41.137486 346.680664,31.692778 323.207123,22.365852 
	C318.894958,20.652464 314.392822,19.417068 309.791199,17.809107 
	C308.744049,18.942455 307.535217,20.120178 307.098755,21.536024 
	C306.260223,24.256224 305.859467,27.111385 305.251526,29.455070 
	C304.756561,17.146252 304.756561,17.146252 295.826538,16.670990 
	C295.085571,15.359125 294.471405,14.323620 293.857239,13.288111 
	C310.493561,9.617087 324.900208,17.537127 339.653046,22.652065 
	C359.630371,29.578392 379.266663,37.508583 398.916473,45.341228 
	C402.561035,46.793999 405.577576,49.822289 408.825745,52.861389 
	C408.616821,62.998226 408.417694,72.396950 408.385742,81.796242 
	C408.382294,82.808762 409.349854,83.824585 409.867004,84.838867 
	C409.890320,102.293556 409.913605,119.748238 409.672394,137.945648 
	C409.298431,145.218994 409.188934,151.749603 409.079437,158.280228 
z"/>
<path fill="#131313" opacity="1.000000" stroke="none" 
	d="
M402.193054,324.808899 
	C407.722595,330.703339 412.998627,336.350464 418.274628,341.997620 
	C418.909515,341.797455 419.544403,341.597321 420.179291,341.397156 
	C419.838989,337.374146 419.615997,333.336914 419.131592,329.331299 
	C418.357574,322.930634 417.335571,316.559814 416.572113,310.158081 
	C416.265289,307.585480 416.428131,304.698456 419.881073,304.571167 
	C423.267853,304.446350 427.049255,305.081268 427.706116,309.198944 
	C430.245453,325.117584 432.556366,341.074432 434.707916,357.049957 
	C434.893311,358.426758 433.645386,360.863464 432.438202,361.399200 
	C428.737640,363.041382 424.622253,363.979919 421.277863,360.545807 
	C416.061737,355.189728 411.115631,349.570587 405.895660,344.218384 
	C401.090729,339.291718 396.075500,334.570129 391.152893,329.758179 
	C390.564392,329.986511 389.975861,330.214813 389.387360,330.443146 
	C389.387360,332.430328 389.173767,334.444946 389.424835,336.399872 
	C390.441315,344.315002 391.722321,352.197510 392.650330,360.121979 
	C393.046173,363.502289 393.799042,367.353516 388.477203,368.061676 
	C383.671875,368.701111 382.911469,367.907288 382.369751,362.981140 
	C381.466461,354.767212 380.127838,346.600861 378.956329,338.416809 
	C377.808258,330.396973 376.519867,322.393616 375.611328,314.347046 
	C375.476410,313.152191 376.783264,311.153259 377.948364,310.562836 
	C383.257111,307.872681 387.796387,309.144440 391.716675,313.633545 
	C394.995789,317.388458 398.522491,320.927155 402.193054,324.808899 
M388.473633,327.517212 
	C388.473633,327.517212 388.517517,327.504395 388.473633,327.517212 
z"/>
<path fill="#141413" opacity="1.000000" stroke="none" 
	d="
M462.436951,312.416077 
	C465.293884,308.281555 467.864868,304.383209 470.637177,300.633759 
	C471.587128,299.348969 472.905182,297.784027 474.294006,297.494812 
	C476.917328,296.948578 479.713837,297.233948 482.438385,297.173767 
	C481.666321,299.374878 481.246307,301.792236 480.053284,303.734833 
	C477.003754,308.700378 473.699463,313.518158 470.321503,318.270233 
	C468.152802,321.321198 468.103302,323.884125 470.768372,326.712372 
	C477.162781,333.498322 483.445007,340.392365 489.652863,347.349579 
	C490.786621,348.620209 491.354095,350.396149 492.182983,351.938843 
	C490.623657,352.667786 489.122192,353.582367 487.493835,354.089844 
	C483.094604,355.460907 480.057709,353.799561 477.247192,350.145355 
	C473.503784,345.278229 469.191406,340.822601 464.888306,336.420074 
	C461.359802,332.810059 459.152588,333.230591 457.066345,337.879181 
	C456.227264,339.748871 455.973206,342.042084 456.048767,344.120880 
	C456.144379,346.752380 456.667175,349.408325 457.327972,351.970612 
	C458.523376,356.606018 456.797058,358.721100 452.141907,359.513306 
	C447.377991,360.324005 446.391174,357.786591 445.882111,353.997589 
	C443.797363,338.480499 441.642151,322.972595 439.434357,307.472504 
	C438.768097,302.795105 441.109467,301.306458 445.318604,300.859711 
	C449.782288,300.385895 450.532776,302.420746 450.739502,306.363953 
	C451.021881,311.749969 452.234314,317.087219 453.165710,323.220001 
	C458.140778,320.890228 459.160706,315.856659 462.436951,312.416077 
z"/>
<path fill="#131313" opacity="1.000000" stroke="none" 
	d="
M332.272552,329.278778 
	C332.849121,326.764984 333.502899,324.681152 333.785614,322.548126 
	C334.368958,318.146393 336.599487,315.693665 341.145172,315.212524 
	C345.655487,314.735168 348.546692,316.240112 350.768860,320.430969 
	C358.321472,334.674561 366.264252,348.710815 373.959808,362.879578 
	C375.082336,364.946411 378.070435,367.234344 374.499908,369.646332 
	C371.219269,371.862518 366.313599,370.959625 364.203766,367.999207 
	C364.107483,367.864105 364.005798,367.726074 363.943848,367.574219 
	C359.174164,355.885559 356.033661,359.879486 346.292480,360.255127 
	C345.318176,360.292694 344.345062,360.959412 343.394104,360.908661 
	C337.454285,360.591583 335.079834,363.936462 334.362244,369.269836 
	C334.166901,370.721802 333.880096,372.853058 332.924469,373.377563 
	C330.374146,374.777283 327.437439,375.473083 324.654358,376.448669 
	C324.043427,374.302185 322.568481,371.979340 322.964722,370.038422 
	C325.191711,359.129059 327.870544,348.311951 330.392273,337.462677 
	C330.994476,334.871948 331.585571,332.278595 332.272552,329.278778 
M339.691315,343.142365 
	C339.620911,343.467255 339.450317,343.806976 339.495789,344.114746 
	C339.874115,346.676300 340.056641,351.361206 340.737549,351.436615 
	C344.552826,351.858887 348.500854,351.242584 352.373016,350.743774 
	C352.762970,350.693542 353.454376,348.803009 353.150269,348.193298 
	C350.174774,342.227875 347.017456,336.353149 343.911835,330.452637 
	C343.339539,330.580139 342.767242,330.707672 342.194916,330.835175 
	C341.412811,334.664154 340.630707,338.493164 339.691315,343.142365 
z"/>
<path fill="#161615" opacity="1.000000" stroke="none" 
	d="
M97.002991,27.905903 
	C96.992500,27.444771 96.982018,26.983639 96.962692,26.174458 
	C108.647667,24.610102 120.321762,23.136501 132.039963,22.238350 
	C149.223709,20.921291 166.436829,19.978760 183.642868,18.969225 
	C186.780487,18.785131 189.944077,19.043518 193.736694,19.364822 
	C195.246994,20.724253 196.116272,21.816504 196.529053,22.949306 
	C180.841293,23.448538 165.593796,23.617487 150.384552,24.469307 
	C140.495087,25.023184 130.683014,26.878485 120.795761,27.577358 
	C112.896561,28.135708 104.936203,27.828773 97.002991,27.905903 
z"/>
<path fill="#262625" opacity="1.000000" stroke="none" 
	d="
M299.991852,447.512512 
	C299.315125,445.834930 298.065338,443.691559 298.061829,441.546112 
	C297.961731,380.436768 297.973938,319.327179 298.052948,258.217773 
	C298.055389,256.329987 298.962494,254.443375 299.711639,252.294495 
	C299.983490,317.037079 299.991547,382.041382 299.991852,447.512512 
z"/>
<path fill="#141413" opacity="1.000000" stroke="none" 
	d="
M210.867371,18.242397 
	C234.668930,16.544477 258.470490,14.846557 282.888062,13.346893 
	C284.675690,14.680591 285.847290,15.816033 286.633545,17.104006 
	C273.501801,18.091295 260.756866,18.947628 248.008759,19.754562 
	C235.994415,20.515051 223.976776,21.223501 211.886780,21.638222 
	C211.497757,20.295198 211.182571,19.268797 210.867371,18.242397 
z"/>
<path fill="#161615" opacity="1.000000" stroke="none" 
	d="
M171.988754,462.057037 
	C170.806488,463.245697 169.624222,464.434387 168.203003,465.833740 
	C158.710236,457.616028 149.456436,449.187592 140.089752,440.452515 
	C140.336746,439.028564 140.696609,437.911255 141.329559,436.459473 
	C141.812958,436.083527 142.023300,436.041962 142.526611,436.135376 
	C152.542618,444.865906 162.265686,453.461456 171.988754,462.057037 
z"/>
<path fill="#161615" opacity="1.000000" stroke="none" 
	d="
M295.861542,174.205078 
	C296.711792,173.867020 297.562042,173.528976 298.747345,173.104599 
	C298.786163,184.790207 298.489960,196.562134 298.140778,208.789612 
	C297.379242,205.396164 296.670685,201.547165 295.921692,196.820953 
	C295.891296,191.682541 295.901398,187.421387 295.926025,182.713760 
	C295.922546,180.779053 295.904449,179.290787 295.871826,177.440216 
	C295.858704,176.120300 295.860107,175.162689 295.861542,174.205078 
z"/>
<path fill="#161615" opacity="1.000000" stroke="none" 
	d="
M49.519562,28.018826 
	C43.538910,29.015667 37.122536,30.314976 30.642252,30.875805 
	C25.994028,31.278080 21.260334,30.692749 16.305340,30.316730 
	C27.049435,29.392042 38.052963,28.698647 49.519562,28.018826 
z"/>
<path fill="#161615" opacity="1.000000" stroke="none" 
	d="
M135.017487,393.484375 
	C135.342285,393.404602 135.925735,393.794067 135.922012,394.177826 
	C135.820877,404.595306 135.659683,415.012238 135.264526,425.708679 
	C135.014511,415.309052 135.008499,404.630005 135.017487,393.484375 
z"/>
<path fill="#262625" opacity="1.000000" stroke="none" 
	d="
M409.875458,84.385162 
	C409.349854,83.824585 408.382294,82.808762 408.385742,81.796242 
	C408.417694,72.396950 408.616821,62.998226 408.915833,53.191418 
	C409.387268,58.694973 409.821014,64.603157 409.997223,70.519005 
	C410.130219,74.984741 409.933746,79.460274 409.875458,84.385162 
z"/>
<path fill="#262625" opacity="1.000000" stroke="none" 
	d="
M134.373718,227.845932 
	C134.896500,229.113464 135.854355,230.822357 135.804855,232.501572 
	C135.560883,240.778168 135.049911,249.046890 134.390106,257.576294 
	C134.212799,247.980698 134.278580,238.127151 134.373718,227.845932 
z"/>
<path fill="#262625" opacity="1.000000" stroke="none" 
	d="
M210.424835,18.222658 
	C211.182571,19.268797 211.497757,20.295198 211.451355,21.668665 
	C208.775162,21.934566 206.460541,21.853403 203.927368,21.548063 
	C202.293411,20.316399 200.878006,19.308908 199.462616,18.301420 
	C202.969177,18.268585 206.475754,18.235752 210.424835,18.222658 
z"/>
<path fill="#262625" opacity="1.000000" stroke="none" 
	d="
M409.265442,157.882507 
	C409.188934,151.749603 409.298431,145.218994 409.640320,138.423370 
	C409.732300,144.600494 409.591888,151.042633 409.265442,157.882507 
z"/>
<path fill="#262625" opacity="1.000000" stroke="none" 
	d="
M287.018921,16.951475 
	C285.847290,15.816033 284.675690,14.680591 283.320679,13.333944 
	C286.414856,13.148709 289.692352,13.174678 293.413574,13.244380 
	C294.471405,14.323620 295.085571,15.359125 295.381226,16.689518 
	C292.381470,16.973427 289.700195,16.962452 287.018921,16.951475 
z"/>
<path fill="#131313" opacity="1.000000" stroke="none" 
	d="
M199.061050,18.356823 
	C200.878006,19.308908 202.293411,20.316399 203.523544,21.619545 
	C201.220703,22.246389 199.103134,22.577574 196.985550,22.908758 
	C196.116272,21.816504 195.246994,20.724253 194.204346,19.396933 
	C195.573807,18.911983 197.116653,18.662104 199.061050,18.356823 
z"/>
<path fill="#161615" opacity="1.000000" stroke="none" 
	d="
M64.588455,27.086433 
	C63.031185,27.738014 61.049969,28.661829 58.989853,28.898336 
	C57.279938,29.094641 55.477123,28.481760 53.326660,28.087246 
	C56.668690,27.651814 60.399525,27.356478 64.588455,27.086433 
z"/>
<path fill="#161615" opacity="1.000000" stroke="none" 
	d="
M170.138580,468.307312 
	C171.530472,469.169250 173.120529,470.289276 174.822876,471.714447 
	C173.402390,470.868225 171.869568,469.716827 170.138580,468.307312 
z"/>
<path fill="#161615" opacity="1.000000" stroke="none" 
	d="
M135.109482,387.452881 
	C135.233047,388.242004 135.335419,389.420258 135.251007,390.782532 
	C135.072250,389.925018 135.080276,388.883514 135.109482,387.452881 
z"/>
<path fill="#161615" opacity="1.000000" stroke="none" 
	d="
M135.081116,433.327301 
	C135.393372,433.846588 135.754028,434.677399 136.065491,435.744843 
	C135.720718,435.200592 135.425125,434.419708 135.081116,433.327301 
z"/>
<path fill="#161615" opacity="1.000000" stroke="none" 
	d="
M175.152008,472.233704 
	C175.240540,472.260956 175.463257,472.489807 175.842285,472.902557 
	C175.744888,472.887848 175.507416,472.670776 175.152008,472.233704 
z"/>
<path fill="#161615" opacity="1.000000" stroke="none" 
	d="
M139.184387,440.055878 
	C139.182953,440.010406 139.445267,439.994171 139.839386,440.009979 
	C139.795471,440.032379 139.621124,440.046722 139.184387,440.055878 
z"/>
<path fill="#000000" opacity="1.000000" stroke="none" 
	d="
M295.568787,174.052338 
	C295.860107,175.162689 295.858704,176.120300 295.631897,177.625153 
	C292.920319,180.103729 293.682281,181.706238 295.911469,183.160217 
	C295.901398,187.421387 295.891296,191.682541 295.886536,196.390137 
	C295.102661,197.808411 294.313446,198.780228 293.382996,200.490982 
	C293.296295,210.006454 293.350891,218.782990 293.405518,227.559540 
	C293.487335,248.349258 293.558838,269.139038 293.657562,289.928680 
	C293.685150,295.738647 293.919617,301.550018 293.837524,307.357605 
	C293.675629,318.807373 293.233978,330.253906 293.135498,341.703705 
	C292.993774,358.178284 292.809113,374.659210 293.118774,391.128448 
	C293.315094,401.568359 294.625824,411.984192 294.953308,422.425964 
	C295.140167,428.385162 294.434998,434.381134 293.952148,440.346039 
	C293.838379,441.751282 293.001160,443.097961 292.105347,444.530945 
	C289.920929,443.322174 288.127899,442.054047 286.123901,440.523132 
	C271.747955,431.012329 257.582947,421.764343 243.350037,412.091919 
	C243.230652,406.142883 243.179214,400.618286 243.511475,394.990173 
	C245.695374,394.587463 247.533264,394.429779 249.288528,393.962036 
	C254.223251,392.647095 259.424530,391.830994 263.962036,389.653839 
	C269.655609,386.922058 270.372833,381.260223 269.905457,375.453003 
	C269.610992,371.793610 267.846100,369.421051 264.074585,367.806183 
	C264.420074,377.315247 261.397034,384.231323 251.601639,386.949402 
	C243.409256,386.707062 243.009109,386.304840 242.997940,378.593414 
	C242.988525,372.098175 243.111313,365.600220 242.956161,359.108673 
	C242.850739,354.697998 245.023849,352.718628 249.145798,352.303467 
	C253.119980,351.903259 257.120605,351.638702 261.050323,350.967407 
	C263.817108,350.494751 267.978882,350.691162 267.376587,346.363617 
	C266.768311,341.993347 262.967438,343.467987 260.095947,343.754028 
	C256.126770,344.149414 252.135437,344.994202 248.202484,344.773743 
	C246.459610,344.676056 243.436539,342.498138 243.382172,341.166962 
	C242.973068,331.150146 243.159103,321.109039 243.159103,311.075500 
	C244.230988,311.817322 244.340271,312.605316 244.546982,313.366852 
	C246.130005,319.198822 251.734818,323.893372 257.069977,323.878601 
	C262.526978,323.863495 267.315399,319.783966 269.189270,313.657867 
	C270.825195,308.309540 269.105499,303.549347 266.990753,298.731903 
	C266.306854,297.173981 265.908752,294.966919 266.481110,293.480927 
	C268.092255,289.297943 267.378937,287.483246 262.915253,287.229858 
	C260.464325,287.090759 257.978607,287.747650 255.500122,287.861633 
	C252.706055,287.990143 249.764603,288.428040 247.154373,287.731049 
	C245.569626,287.307831 243.257324,284.760590 243.478256,283.580688 
	C243.795486,281.886749 246.067429,280.503967 247.634277,279.136627 
	C248.036255,278.785828 248.925461,279.008911 249.587646,278.938538 
	C265.728363,277.223816 273.767731,259.026428 264.235352,245.824036 
	C263.515533,244.827072 262.970337,243.704025 262.270996,242.515579 
	C263.259857,241.901703 263.998688,241.685730 264.327698,241.195007 
	C265.482330,239.472778 266.495941,237.656006 267.563049,235.875122 
	C265.785889,235.099304 264.023712,233.727570 262.228180,233.682434 
	C259.272705,233.608124 256.290741,234.762985 253.328949,234.723389 
	C249.441956,234.671387 245.563721,233.963303 241.438614,233.510696 
	C239.905899,234.177917 237.730087,235.732544 235.394089,236.030258 
	C227.807800,236.997116 220.162689,237.502060 212.540558,238.188293 
	C209.546234,238.457855 207.567734,240.225281 208.291870,243.052917 
	C208.623260,244.346939 211.294800,245.829880 212.921082,245.848846 
	C216.979630,245.896118 221.047379,245.154083 225.773148,244.659607 
	C225.102570,246.404907 224.659393,247.573471 224.205292,248.737778 
	C220.710922,257.697449 221.534317,268.966705 230.471375,274.531891 
	C232.582977,275.846832 235.070496,276.678986 236.904892,278.282562 
	C238.584183,279.750549 240.693878,281.998749 240.629730,283.833740 
	C240.564484,285.700409 238.259689,287.681915 236.580566,289.227509 
	C235.552933,290.173370 233.838760,290.351105 232.463959,290.945679 
	C220.382645,296.169952 220.212067,311.965363 225.659500,320.699066 
	C226.396362,321.880463 229.061935,321.858856 230.834442,322.394287 
	C231.079788,320.925507 231.713516,319.393463 231.486694,318.001648 
	C231.061066,315.390015 229.916290,312.897583 229.467026,310.287354 
	C228.498077,304.657806 231.218948,299.149353 235.634781,297.264832 
	C239.623474,295.562531 241.948563,296.932709 241.776871,301.241364 
	C241.253494,314.375824 240.575882,327.504364 239.880066,340.631104 
	C239.826035,341.650177 239.163437,342.637024 238.728622,343.784088 
	C233.082733,342.269257 231.960281,338.035278 230.833908,333.553772 
	C230.469543,332.104095 228.777374,330.988159 227.692596,329.719543 
	C226.734161,331.076843 224.810730,332.581604 224.991501,333.764862 
	C225.629150,337.938690 226.988113,342.002289 228.159698,346.433655 
	C227.611206,347.621613 226.669312,349.661713 225.727417,351.701782 
	C227.914215,352.488281 230.092102,353.301422 232.295242,354.039124 
	C232.743774,354.189331 233.289337,354.083862 233.786774,354.048553 
	C237.954422,353.752869 239.979385,355.572601 239.923523,359.863678 
	C239.836792,366.524902 239.963654,373.188629 239.936050,379.851013 
	C239.906967,386.868866 239.215561,387.531403 232.176620,387.206787 
	C232.044891,383.630127 232.256256,380.428741 231.730423,377.353394 
	C231.410217,375.480652 229.953537,373.802216 229.007324,372.036499 
	C227.766830,373.756409 226.431992,375.419189 225.337021,377.227234 
	C224.954117,377.859497 225.145660,378.848694 225.102676,379.676331 
	C224.695663,387.513275 224.641357,387.336945 217.010956,389.759644 
	C215.234833,390.323578 213.981735,392.534821 212.487976,393.988098 
	C214.193130,394.983002 215.817596,396.605499 217.620850,396.837311 
	C220.991974,397.270691 224.205826,397.116913 225.677368,401.191956 
	C226.019257,402.138763 228.126968,403.114655 229.227692,402.928345 
	C230.274124,402.751190 231.094376,401.094330 231.963425,400.046082 
	C233.360992,398.360382 234.716934,396.640167 236.443695,395.032043 
	C237.854645,396.809082 239.626907,398.409912 239.822342,400.184387 
	C240.238327,403.961151 239.835129,407.828186 239.361237,411.744995 
	C234.652557,412.659485 230.350311,413.487152 226.048050,414.314819 
	C226.083893,414.776154 226.119720,415.237457 226.155563,415.698792 
	C228.984085,415.698792 231.914276,416.173859 234.618942,415.595062 
	C239.516296,414.547058 243.699554,415.385742 247.789139,418.232117 
	C253.640289,422.304626 259.622375,426.199738 265.668671,429.978302 
	C272.376404,434.170197 279.219330,438.145752 286.147247,442.482788 
	C288.201874,443.489624 290.112701,444.229126 292.023499,444.968628 
	C291.143219,445.988678 290.430664,447.636688 289.354736,447.924011 
	C283.577942,449.466675 277.710663,450.670624 271.224792,451.967468 
	C269.717102,452.294495 268.859283,452.645569 268.001465,452.996643 
	C240.958130,458.962708 213.914795,464.928772 186.468567,470.475677 
	C186.058258,457.419037 186.047348,444.781586 186.045898,432.144135 
	C186.045547,429.095764 186.076477,426.047424 186.093033,422.999054 
	C186.093033,422.999054 186.154160,422.938507 186.170654,422.897736 
	C186.312790,405.057343 186.438461,387.257721 186.611816,368.590576 
	C186.712692,355.215912 186.765854,342.708801 186.819031,330.201660 
	C186.872253,311.229187 187.029526,292.256226 186.938004,273.284424 
	C186.886627,262.634064 186.423904,251.985641 186.225723,240.476257 
	C186.484238,232.800140 186.663528,225.984146 186.842804,219.168137 
	C186.546158,207.040009 185.883926,194.905655 186.090790,182.786118 
	C186.213699,175.585403 183.973297,170.378143 178.041977,166.275589 
	C168.620209,159.758759 159.455933,152.869675 149.873993,145.820480 
	C152.808426,144.734726 156.013794,143.602921 159.301270,143.261383 
	C173.508926,141.785309 187.742462,140.559860 201.961960,139.194962 
	C204.761169,138.926270 207.531403,138.210526 210.329803,138.108932 
	C216.100937,137.899414 221.905762,138.285172 227.654755,137.859344 
	C247.384048,136.398010 267.095215,134.692001 286.527283,133.254883 
	C283.779755,134.388306 281.318176,135.346085 278.477783,136.292847 
	C267.380829,139.168076 256.662750,142.054352 245.646439,145.002640 
	C244.482208,145.558151 243.616211,146.051651 242.536362,146.937744 
	C242.115982,149.290039 241.744080,151.248581 241.730255,153.209656 
	C241.650909,164.461136 241.656540,175.713226 241.282318,187.062469 
	C239.318726,187.571350 237.686600,187.918854 236.096878,188.404984 
	C227.235733,191.114777 221.097031,199.319962 221.258865,208.183929 
	C221.418274,216.915756 226.699265,223.005539 235.855103,226.256577 
	C242.029831,228.449066 247.700424,227.035339 253.412994,225.248550 
	C266.780151,221.067535 272.630066,200.385254 263.462708,189.720932 
	C262.714355,188.850388 260.612915,188.150345 259.796173,188.589905 
	C258.839172,189.104965 258.256775,190.929977 258.160950,192.234451 
	C258.086060,193.254318 259.039459,194.331741 259.470490,195.409760 
	C261.752289,201.116730 261.837830,206.826416 258.928497,212.303711 
	C256.029388,217.761719 251.338470,219.167023 247.311081,216.697815 
	C245.800003,218.880280 244.315979,221.023651 242.831940,223.167023 
	C241.526566,220.823532 240.221207,218.480042 238.979156,216.250229 
	C237.255035,219.762772 234.605240,218.451355 232.143433,216.430588 
	C228.586761,213.511108 227.466904,209.525131 228.445023,205.175110 
	C229.491211,200.522430 232.179428,197.049393 236.999451,195.625259 
	C242.544022,193.987061 243.910522,194.955139 244.008163,200.735397 
	C244.067261,204.233383 244.019043,207.733154 244.019043,211.232132 
	C244.664261,211.221954 245.309494,211.211792 245.954712,211.201614 
	C245.954712,205.486313 246.127029,199.763306 245.872360,194.059357 
	C245.766174,191.681000 244.751053,189.343216 244.134033,186.519485 
	C244.208542,173.052368 244.298218,160.052750 244.573608,147.013412 
	C245.095139,146.841721 245.430969,146.709732 246.161804,146.448898 
	C247.379181,146.204575 248.201553,146.089096 249.025055,145.996826 
	C249.026169,146.020004 248.970718,146.030182 249.245407,145.911194 
	C259.337769,143.184250 269.155457,140.576279 279.348267,137.893021 
	C282.688873,136.908585 285.668213,136.038651 288.590820,135.007843 
	C288.800323,134.933945 288.594849,133.683456 288.878845,132.761993 
	C297.510498,132.550125 306.276764,130.877472 314.097565,132.886139 
	C335.174408,138.299545 355.819519,145.378799 376.699799,151.582062 
	C382.715546,153.369263 388.947784,154.427612 395.080780,155.820145 
	C387.290894,157.169693 379.545441,158.919739 371.702362,159.789536 
	C352.416138,161.928391 333.087311,163.686661 313.770447,165.544098 
	C307.994263,166.099503 302.205933,166.703094 296.413147,166.831329 
	C293.870453,166.887604 291.302582,165.808334 288.091675,164.933807 
	C273.912659,159.093338 260.655243,152.857300 246.612259,148.580978 
	C246.752975,149.716309 247.158997,150.255676 247.696777,150.482010 
	C261.116821,156.130371 274.550751,161.745697 287.982239,167.366882 
	C290.413483,169.544464 292.844757,171.722031 295.568787,174.052338 
M209.251205,418.044037 
	C198.748734,419.386993 197.523621,419.795868 195.183105,423.525940 
	C201.875122,422.199646 207.773804,421.030548 213.672470,419.861450 
	C213.644501,419.362518 213.616531,418.863556 213.588577,418.364624 
	C212.404205,418.228546 211.219849,418.092468 209.251205,418.044037 
M240.517502,212.520737 
	C240.517502,212.520737 240.518234,212.493347 240.517502,212.520737 
z"/>
<path fill="#000000" opacity="1.000000" stroke="none" 
	d="
M196.529053,22.949308 
	C199.103134,22.577574 201.220703,22.246389 203.742111,21.843723 
	C206.460541,21.853403 208.775162,21.934566 211.525177,21.985287 
	C223.976776,21.223501 235.994415,20.515051 248.008759,19.754562 
	C260.756866,18.947628 273.501801,18.091295 286.633545,17.104006 
	C289.700195,16.962452 292.381470,16.973427 295.508026,16.965878 
	C304.756561,17.146252 304.756561,17.146252 305.215088,29.904324 
	C305.208252,32.866867 305.212341,34.924652 305.216370,36.982441 
	C305.168518,38.715084 305.120667,40.447727 305.059631,43.061592 
	C305.047089,46.953323 305.047729,49.963837 305.048370,52.974346 
	C303.241577,54.285316 301.508911,56.611187 299.616486,56.749329 
	C281.859955,58.045506 264.080658,59.054646 246.299179,59.978855 
	C212.075867,61.757645 177.846970,63.429100 143.620209,65.141212 
	C124.678490,66.088722 105.736519,67.031349 86.794357,67.970100 
	C79.983589,68.307640 73.136238,69.178970 66.374542,68.741287 
	C62.532959,68.492630 58.338528,66.783577 55.155300,64.528900 
	C44.158825,56.740131 33.536694,48.422848 22.336796,39.837318 
	C20.626274,37.938759 19.350994,36.509670 18.075714,35.080582 
	C29.767159,34.068314 41.458603,33.056046 54.009567,32.053238 
	C57.977123,31.758469 61.085167,31.454241 64.193207,31.150013 
	C65.845016,31.117111 67.496826,31.084209 70.019196,31.056885 
	C74.615707,30.728167 78.341644,30.393871 82.067589,30.059578 
	C83.110481,30.056654 84.153366,30.053730 85.962769,30.049791 
	C87.476814,30.012163 88.224342,29.975552 88.971878,29.938938 
	C91.448296,29.405449 93.924706,28.871962 96.702057,28.122189 
	C104.936203,27.828773 112.896561,28.135708 120.795761,27.577358 
	C130.683014,26.878485 140.495087,25.023184 150.384552,24.469307 
	C165.593796,23.617487 180.841293,23.448538 196.529053,22.949308 
z"/>
<path fill="#000000" opacity="1.000000" stroke="none" 
	d="
M178.914185,423.540344 
	C178.894730,424.009735 178.923096,424.230865 178.506836,424.384308 
	C167.997818,426.571747 157.886765,428.520111 147.819077,430.671387 
	C141.633759,431.992981 141.118286,431.741669 141.084991,425.532928 
	C141.005630,410.729370 140.957336,395.925690 140.896500,381.122040 
	C140.909332,333.830597 140.918167,286.539154 140.937210,239.247726 
	C140.943771,222.928436 140.939926,206.608994 141.013733,190.289948 
	C141.043259,183.759766 142.298431,182.723175 148.887558,182.035904 
	C157.151825,181.173920 165.407272,180.162949 173.622223,178.922821 
	C177.083862,178.400238 178.878281,179.510345 178.971069,182.875092 
	C179.140427,189.015457 179.118179,195.161987 179.119324,201.305954 
	C179.129150,253.760834 179.144638,306.215729 179.118317,358.670593 
	C179.107544,380.137390 178.998169,401.604156 178.914185,423.540344 
z"/>
<path fill="#000000" opacity="1.000000" stroke="none" 
	d="
M146.237976,141.389603 
	C145.019058,141.620605 143.800156,141.851624 141.762985,142.121643 
	C126.987900,143.138748 113.031059,144.116852 98.604156,145.060303 
	C92.734123,145.378433 87.334145,145.731201 81.483864,146.065674 
	C78.092781,146.196671 75.134567,146.193207 72.214828,146.526672 
	C65.921143,147.245438 65.144684,146.638519 64.897530,140.168228 
	C64.859985,139.185379 64.835693,138.202042 64.805275,137.218933 
	C64.865746,136.077423 65.084824,134.918152 64.959198,133.797501 
	C64.420769,128.994614 66.987000,126.943596 72.106781,126.205658 
	C79.595444,124.332764 86.616684,123.383553 92.955849,120.776123 
	C108.786034,114.264809 124.179504,114.043449 139.964951,120.889915 
	C146.134232,123.565659 152.845703,125.269173 159.478928,126.523071 
	C166.863083,127.918930 174.138550,126.478226 180.448624,122.190758 
	C182.141785,121.040314 184.078003,118.422829 183.832535,116.790009 
	C183.614868,115.342186 180.670029,113.819084 178.665756,113.239006 
	C175.670837,112.372192 172.438263,112.348404 169.318802,111.885033 
	C164.308624,111.140816 159.308258,110.330406 154.303757,109.547966 
	C154.371643,108.954781 154.439529,108.361603 154.507416,107.768417 
	C158.786896,107.768417 163.066849,107.810249 167.345749,107.760162 
	C177.977875,107.635719 188.609741,107.337463 199.241302,107.354851 
	C211.185898,107.374382 223.130188,107.809822 235.074310,107.795555 
	C247.616531,107.780571 260.349213,108.721504 272.644531,106.880096 
	C284.022461,105.176094 294.932068,100.345108 306.052368,97.360390 
	C306.305908,102.364777 306.554962,106.899963 306.704407,111.869980 
	C306.432709,115.122711 306.181976,117.938446 306.104431,120.758942 
	C305.925049,127.282539 305.621918,127.744324 299.030518,128.302567 
	C286.135406,129.394669 273.227478,130.334457 260.330902,131.410004 
	C242.458710,132.900513 224.587067,134.401794 206.725067,136.008530 
	C196.496140,136.928665 186.286835,138.066833 175.776550,139.119537 
	C175.290298,139.150558 175.096207,139.168854 174.478149,139.187485 
	C164.782120,139.921753 155.510056,140.655670 146.237976,141.389603 
z"/>
<path fill="#000000" opacity="1.000000" stroke="none" 
	d="
M65.020073,110.699852 
	C65.367844,101.724213 65.638145,92.744614 66.095612,83.774567 
	C66.329277,79.192741 68.958054,77.424065 74.304359,77.183884 
	C85.708832,76.671547 97.099930,75.864502 108.503700,75.332672 
	C119.620651,74.814217 130.763153,74.741356 141.864380,74.014114 
	C155.964081,73.090439 170.023331,71.560440 184.119354,70.565620 
	C194.538773,69.830276 204.998383,69.677124 215.423523,69.006920 
	C232.330627,67.920013 249.223328,66.610374 266.123688,65.417053 
	C277.211243,64.634171 288.297028,63.812786 299.392700,63.163803 
	C304.543549,62.862526 305.775177,64.389534 307.724243,73.047691 
	C307.792999,75.821205 307.741486,77.815605 307.542603,79.827888 
	C307.395264,79.845764 307.102295,79.893410 306.722260,79.741562 
	C302.872070,79.263855 299.407654,78.749290 295.930817,78.644005 
	C278.650482,78.120682 261.088104,76.283760 244.547821,82.655663 
	C232.889618,87.146820 221.046188,88.471443 208.925079,88.005348 
	C193.879959,87.426819 179.620438,90.933548 165.178864,94.331924 
	C155.410706,96.630569 145.289322,97.679359 135.261963,98.552750 
	C125.706970,99.385002 115.852638,98.112816 106.524132,99.864845 
	C95.669701,101.903458 85.280205,106.347946 74.608887,109.475174 
	C71.555229,110.370049 68.224014,110.317810 65.020073,110.699852 
z"/>
<path fill="#000000" opacity="1.000000" stroke="none" 
	d="
M396.868500,55.807793 
	C403.438049,56.490746 403.909729,56.971687 404.026855,63.280895 
	C404.358612,81.148590 404.680786,99.016457 404.559937,117.367317 
	C397.417664,116.881470 390.722168,115.912567 383.757141,114.740379 
	C376.831207,109.645821 370.174805,104.754555 363.303711,99.589981 
	C355.758728,92.696030 346.975891,89.304314 337.279022,89.339287 
	C328.975067,89.369225 321.406982,88.821739 314.756805,82.843147 
	C312.147461,80.497299 309.678162,78.814522 309.873627,75.033852 
	C309.859192,74.378838 309.879517,73.720917 309.825104,73.069237 
	C308.894897,61.924812 308.892853,61.924984 320.983887,62.050159 
	C326.937744,61.717133 331.975037,61.369926 337.012360,61.022724 
	C346.138031,60.026085 355.263672,59.029442 365.183868,57.960342 
	C376.275085,57.194519 386.571808,56.501156 396.868500,55.807793 
z"/>
<path fill="#000000" opacity="1.000000" stroke="none" 
	d="
M72.112473,124.148743 
	C65.135643,123.446548 65.015564,123.286949 65.428062,114.281082 
	C71.346085,112.683121 77.122643,112.222771 82.255829,110.160789 
	C99.762657,103.128380 117.729622,100.892929 136.538055,101.747643 
	C145.645981,102.161537 155.104706,100.413208 164.023453,98.145081 
	C177.803207,94.640762 191.486145,91.612144 205.818558,91.727478 
	C219.509293,91.837654 232.933914,90.271408 246.067245,85.577446 
	C252.769669,83.181938 260.303314,82.405571 267.493164,82.234138 
	C280.613831,81.921272 293.758209,82.602966 307.180725,82.902489 
	C307.660889,82.949440 307.853027,82.963676 308.010010,83.400238 
	C307.929535,85.515953 307.884186,87.209351 307.628601,89.167648 
	C306.953369,90.974632 306.488373,92.516701 305.635986,94.103645 
	C299.857574,95.806190 294.328430,97.116295 289.103638,99.192352 
	C277.466339,103.816406 265.522491,106.051262 253.005920,105.199394 
	C241.902466,104.443695 230.786102,103.089806 219.688263,103.207687 
	C198.408539,103.433723 177.137451,104.504051 155.864120,105.261627 
	C153.667725,105.339851 151.035599,104.628181 150.496658,108.155525 
	C149.933167,111.843521 152.751343,112.475113 155.013870,112.903160 
	C161.693604,114.166878 168.453491,115.004356 175.176727,116.042839 
	C176.687225,116.276154 178.176208,116.648796 179.675095,116.957306 
	C179.814743,117.585861 179.954391,118.214424 180.094040,118.842979 
	C176.916580,120.179688 173.852295,122.063042 170.540070,122.748665 
	C161.303818,124.660561 152.368637,123.146690 143.830704,119.190163 
	C129.346283,112.477997 114.660706,109.236465 98.950485,115.286957 
	C90.169312,118.668877 81.068985,121.222099 72.112473,124.148743 
z"/>
<path fill="#000000" opacity="1.000000" stroke="none" 
	d="
M141.992844,145.131592 
	C152.951172,153.667313 163.909500,162.203033 175.865326,171.515732 
	C173.522018,172.288589 172.427490,172.860138 171.281097,172.996948 
	C141.267593,176.578690 111.251488,180.139069 81.229210,183.646545 
	C71.185944,184.819870 64.041634,178.420319 63.991596,168.332092 
	C63.963570,162.681335 63.996807,157.030273 64.468811,150.867874 
	C70.601700,149.544006 76.268204,148.731598 82.324539,147.962433 
	C88.010574,147.889008 93.306786,147.772339 99.023575,147.627747 
	C100.278137,147.478485 101.112122,147.357162 102.085678,147.259674 
	C102.513100,147.295837 102.791588,147.250061 103.518257,147.152130 
	C116.648155,146.482605 129.320496,145.807098 141.992844,145.131592 
z"/>
<path fill="#000000" opacity="1.000000" stroke="none" 
	d="
M14.919445,113.414490 
	C14.831721,110.783562 14.743998,108.152634 14.639490,104.611580 
	C14.418643,96.791603 14.214580,89.881760 14.010516,82.971909 
	C13.948931,78.545250 13.887346,74.118584 13.810410,68.770607 
	C13.538480,59.875069 13.281900,51.900845 13.025322,43.926624 
	C13.428220,37.713779 16.159761,41.535484 18.743843,43.144821 
	C20.777752,44.832829 22.344347,46.084026 23.910942,47.335220 
	C31.897945,54.287777 39.417339,61.897232 48.002972,68.008827 
	C56.653938,74.166931 57.387554,82.678734 57.622368,91.660950 
	C57.782223,97.775955 57.243042,103.909225 56.532700,110.502274 
	C42.339119,111.784973 28.629282,112.599731 14.919445,113.414490 
z"/>
<path fill="#000000" opacity="1.000000" stroke="none" 
	d="
M309.978394,17.961037 
	C314.392822,19.417068 318.894958,20.652464 323.207123,22.365852 
	C346.680664,31.692778 370.107422,41.137486 393.887421,50.864765 
	C393.191315,51.496677 392.172821,52.006393 391.122528,52.083553 
	C379.281616,52.953442 367.435852,53.756935 355.591370,54.578247 
	C343.343231,55.200069 331.098572,55.905647 318.845764,56.415176 
	C310.231842,56.773392 308.992035,55.459835 308.989777,46.913952 
	C308.989014,43.920067 308.984772,40.926178 308.985504,36.996426 
	C309.318726,30.027384 309.648560,23.994209 309.978394,17.961037 
z"/>
<path fill="#000000" opacity="1.000000" stroke="none" 
	d="
M21.580292,151.853424 
	C19.670971,149.684479 17.761652,147.515564 15.776930,144.556030 
	C15.804564,138.778275 16.028982,133.789734 15.971400,128.804459 
	C15.927071,124.966446 17.394987,123.163193 21.396896,122.677505 
	C34.151299,121.129562 46.059315,124.617645 57.981655,128.243195 
	C57.962704,134.459900 57.943752,140.676590 57.468864,147.378510 
	C50.563736,148.268311 44.090004,148.447662 37.672913,149.146851 
	C32.274498,149.735046 26.941982,150.928116 21.580292,151.853424 
z"/>
<path fill="#262625" opacity="1.000000" stroke="none" 
	d="
M72.097389,124.462593 
	C81.068985,121.222099 90.169312,118.668877 98.950485,115.286957 
	C114.660706,109.236465 129.346283,112.477997 143.830704,119.190163 
	C152.368637,123.146690 161.303818,124.660561 170.540070,122.748665 
	C173.852295,122.063042 176.916580,120.179688 180.094040,118.842979 
	C179.954391,118.214424 179.814743,117.585861 179.675095,116.957306 
	C178.176208,116.648796 176.687225,116.276154 175.176727,116.042839 
	C168.453491,115.004356 161.693604,114.166878 155.013870,112.903160 
	C152.751343,112.475113 149.933167,111.843521 150.496658,108.155525 
	C151.035599,104.628181 153.667725,105.339851 155.864120,105.261627 
	C177.137451,104.504051 198.408539,103.433723 219.688263,103.207687 
	C230.786102,103.089806 241.902466,104.443695 253.005920,105.199394 
	C265.522491,106.051262 277.466339,103.816406 289.103638,99.192352 
	C294.328430,97.116295 299.857574,95.806190 305.699463,94.336456 
	C306.116211,95.313316 306.082062,96.102249 306.047913,96.891182 
	C294.932068,100.345108 284.022461,105.176094 272.644531,106.880096 
	C260.349213,108.721504 247.616531,107.780571 235.074310,107.795555 
	C223.130188,107.809822 211.185898,107.374382 199.241302,107.354851 
	C188.609741,107.337463 177.977875,107.635719 167.345749,107.760162 
	C163.066849,107.810249 158.786896,107.768417 154.507416,107.768417 
	C154.439529,108.361603 154.371643,108.954781 154.303757,109.547966 
	C159.308258,110.330406 164.308624,111.140816 169.318802,111.885033 
	C172.438263,112.348404 175.670837,112.372192 178.665756,113.239006 
	C180.670029,113.819084 183.614868,115.342186 183.832535,116.790009 
	C184.078003,118.422829 182.141785,121.040314 180.448624,122.190758 
	C174.138550,126.478226 166.863083,127.918930 159.478928,126.523071 
	C152.845703,125.269173 146.134232,123.565659 139.964951,120.889915 
	C124.179504,114.043449 108.786034,114.264809 92.955849,120.776123 
	C86.616684,123.383553 79.595444,124.332764 72.442375,126.035248 
	C72.027481,125.614632 72.054893,125.195534 72.097389,124.462593 
z"/>
<path fill="#262625" opacity="1.000000" stroke="none" 
	d="
M176.068695,139.106842 
	C186.286835,138.066833 196.496140,136.928665 206.725067,136.008530 
	C224.587067,134.401794 242.458710,132.900513 260.330902,131.410004 
	C273.227478,130.334457 286.135406,129.394669 299.030518,128.302567 
	C305.621918,127.744324 305.925049,127.282539 306.104431,120.758942 
	C306.181976,117.938446 306.432709,115.122711 306.862793,112.321075 
	C307.415985,115.905449 307.554352,119.496544 308.072754,123.031929 
	C308.329956,124.785751 309.285675,126.437141 310.307465,128.208908 
	C331.970123,134.701813 353.266083,141.070221 374.523010,147.566513 
	C382.105103,149.883652 389.592499,152.510696 397.123138,154.996277 
	C396.605377,155.189285 396.087616,155.382309 395.325317,155.697723 
	C388.947784,154.427612 382.715546,153.369263 376.699799,151.582062 
	C355.819519,145.378799 335.174408,138.299545 314.097565,132.886139 
	C306.276764,130.877472 297.510498,132.550125 288.587738,132.767273 
	C287.604492,133.020142 287.208893,133.049698 286.813293,133.079254 
	C267.095215,134.692001 247.384048,136.398010 227.654755,137.859344 
	C221.905762,138.285172 216.100937,137.899414 210.329803,138.108932 
	C207.531403,138.210526 204.761169,138.926270 201.961960,139.194962 
	C187.742462,140.559860 173.508926,141.785309 159.301270,143.261383 
	C156.013794,143.602921 152.808426,144.734726 149.559830,145.749084 
	C148.452286,144.680527 147.350189,143.365753 146.243042,141.720306 
	C155.510056,140.655670 164.782120,139.921753 174.568237,139.250961 
	C175.411087,139.245010 175.739883,139.175934 176.068695,139.106842 
z"/>
<path fill="#262625" opacity="1.000000" stroke="none" 
	d="
M306.892700,82.869781 
	C293.758209,82.602966 280.613831,81.921272 267.493164,82.234138 
	C260.303314,82.405571 252.769669,83.181938 246.067245,85.577446 
	C232.933914,90.271408 219.509293,91.837654 205.818558,91.727478 
	C191.486145,91.612144 177.803207,94.640762 164.023453,98.145081 
	C155.104706,100.413208 145.645981,102.161537 136.538055,101.747643 
	C117.729622,100.892929 99.762657,103.128380 82.255829,110.160789 
	C77.122643,112.222771 71.346085,112.683121 65.433502,113.820213 
	C64.993835,112.999161 64.985054,112.235435 64.998177,111.085785 
	C68.224014,110.317810 71.555229,110.370049 74.608887,109.475174 
	C85.280205,106.347946 95.669701,101.903458 106.524132,99.864845 
	C115.852638,98.112816 125.706970,99.385002 135.261963,98.552750 
	C145.289322,97.679359 155.410706,96.630569 165.178864,94.331924 
	C179.620438,90.933548 193.879959,87.426819 208.925079,88.005348 
	C221.046188,88.471443 232.889618,87.146820 244.547821,82.655663 
	C261.088104,76.283760 278.650482,78.120682 295.930817,78.644005 
	C299.407654,78.749290 302.872070,79.263855 306.676025,80.114746 
	C306.970825,81.383110 306.931763,82.126450 306.892700,82.869781 
z"/>
<path fill="#000000" opacity="1.000000" stroke="none" 
	d="
M58.112885,152.881287 
	C58.431870,157.981964 58.967358,163.080933 59.007214,168.183792 
	C59.044918,173.011520 57.839771,173.638336 53.726536,171.179199 
	C45.768204,166.421249 37.898087,161.515884 29.980820,156.688995 
	C28.569681,155.828690 27.107391,155.052277 25.684036,153.916382 
	C34.530434,152.791092 43.353153,151.857834 52.199169,151.283188 
	C54.127666,151.157928 56.139458,152.314865 58.112885,152.881287 
z"/>
<path fill="#262625" opacity="1.000000" stroke="none" 
	d="
M58.049118,127.810600 
	C46.059315,124.617645 34.151299,121.129562 21.396896,122.677505 
	C17.394987,123.163193 15.927071,124.966446 15.971400,128.804459 
	C16.028982,133.789734 15.804564,138.778275 15.666332,144.194611 
	C12.706100,136.326141 13.529469,127.971825 15.764585,119.509262 
	C28.102083,118.640526 39.809616,119.040230 51.175892,122.895813 
	C51.637257,123.052322 52.168709,122.988121 52.656967,123.081718 
	C56.156918,123.752602 57.636421,121.785400 56.694988,118.911446 
	C56.144234,117.230148 53.764015,114.975739 52.214733,114.981865 
	C41.141106,115.025711 30.069521,115.584877 18.797909,115.957993 
	C18.032187,116.237968 17.465839,116.540192 16.695478,116.992493 
	C16.248430,117.377205 16.005400,117.611855 15.762367,117.846504 
	C15.430094,116.539062 15.097820,115.231613 14.842496,113.669327 
	C28.629282,112.599731 42.339119,111.784973 56.516350,110.967918 
	C57.361355,116.436409 57.738968,121.907211 58.049118,127.810600 
M21.480501,114.516853 
	C21.480501,114.516853 21.517550,114.510307 21.480501,114.516853 
z"/>
<path fill="#262625" opacity="1.000000" stroke="none" 
	d="
M307.838806,88.902740 
	C307.884186,87.209351 307.929535,85.515953 308.072083,83.140610 
	C308.009491,81.575768 307.849731,80.692886 307.689972,79.810013 
	C307.741486,77.815605 307.792999,75.821205 307.848511,73.396439 
	C308.394592,73.516647 308.936676,74.067223 309.676208,74.825821 
	C309.678162,78.814522 312.147461,80.497299 314.756805,82.843147 
	C321.406982,88.821739 328.975067,89.369225 337.279022,89.339287 
	C346.975891,89.304314 355.758728,92.696030 363.025513,99.836624 
	C362.611115,100.700737 362.260193,101.044899 361.594940,101.217926 
	C355.344269,96.931435 349.039001,93.183456 341.683777,93.258141 
	C331.450409,93.362076 321.226105,94.360130 310.758545,94.731544 
	C309.625702,92.625992 308.732239,90.764366 307.838806,88.902740 
M315.942169,87.171745 
	C315.263550,86.717316 314.624908,85.976425 313.897064,85.874908 
	C312.776764,85.718658 311.595215,86.001076 310.439697,86.097389 
	C310.607666,87.645241 310.363770,90.274193 311.025391,90.526260 
	C312.630920,91.137939 314.657715,90.643906 316.514771,90.595390 
	C316.486420,89.578865 316.458038,88.562347 315.942169,87.171745 
z"/>
<path fill="#000000" opacity="1.000000" stroke="none" 
	d="
M18.997286,115.980232 
	C30.069521,115.584877 41.141106,115.025711 52.214733,114.981865 
	C53.764015,114.975739 56.144234,117.230148 56.694988,118.911446 
	C57.636421,121.785400 56.156918,123.752602 52.656967,123.081718 
	C52.168709,122.988121 51.637257,123.052322 51.175892,122.895813 
	C39.809616,119.040230 28.102083,118.640526 15.899620,119.252289 
	C15.568471,118.883888 15.613868,118.677834 15.710815,118.159142 
	C16.005400,117.611855 16.248430,117.377205 16.970905,116.918839 
	C17.965994,116.456825 18.481640,116.218529 18.997286,115.980232 
z"/>
<path fill="#262625" opacity="1.000000" stroke="none" 
	d="
M140.655991,381.387939 
	C140.957336,395.925690 141.005630,410.729370 141.084991,425.532928 
	C141.118286,431.741669 141.633759,431.992981 147.819077,430.671387 
	C157.886765,428.520111 167.997818,426.571747 178.534485,424.492310 
	C179.004547,425.022491 179.030685,425.598114 178.650696,426.685760 
	C172.898041,428.013885 167.449982,428.427979 162.230286,429.746307 
	C155.469482,431.453827 148.890762,433.882294 142.233658,436.000397 
	C142.023300,436.041962 141.812958,436.083527 141.287201,436.191315 
	C140.323257,433.544434 139.149933,430.838104 139.114685,428.117004 
	C138.936432,414.357574 139.007065,400.593903 139.127411,386.832886 
	C139.142548,385.102905 139.966354,383.380005 140.655991,381.387939 
z"/>
<path fill="#262625" opacity="1.000000" stroke="none" 
	d="
M355.822327,54.734886 
	C367.435852,53.756935 379.281616,52.953442 391.122528,52.083553 
	C392.172821,52.006393 393.191315,51.496677 394.227570,50.983154 
	C399.990509,49.210064 397.598206,52.793728 396.952972,55.513840 
	C386.571808,56.501156 376.275085,57.194519 365.534790,57.842110 
	C362.078552,56.828064 359.065918,55.859795 355.822327,54.734886 
z"/>
<path fill="#262625" opacity="1.000000" stroke="none" 
	d="
M141.998810,144.765930 
	C129.320496,145.807098 116.648155,146.482605 103.239174,147.168488 
	C102.317062,147.197876 102.131592,147.216858 101.946114,147.235855 
	C101.112122,147.357162 100.278137,147.478485 99.110321,147.197418 
	C98.875740,146.228333 98.974983,145.661652 99.074226,145.094955 
	C113.031059,144.116852 126.987900,143.138748 141.397247,142.192581 
	C141.901443,142.949768 141.953110,143.675018 141.998810,144.765930 
z"/>
<path fill="#262625" opacity="1.000000" stroke="none" 
	d="
M58.326790,152.696136 
	C56.139458,152.314865 54.127666,151.157928 52.199169,151.283188 
	C43.353153,151.857834 34.530434,152.791092 25.360039,153.793396 
	C23.981861,153.444366 22.943003,152.897552 21.742218,152.102081 
	C26.941982,150.928116 32.274498,149.735046 37.672913,149.146851 
	C44.090004,148.447662 50.563736,148.268311 57.450989,147.822784 
	C58.106266,149.358231 58.323483,150.934616 58.326790,152.696136 
z"/>
<path fill="#262625" opacity="1.000000" stroke="none" 
	d="
M186.592270,330.465820 
	C186.765854,342.708801 186.712692,355.215912 186.613037,368.146729 
	C186.370178,368.301605 186.000198,368.031372 186.002365,367.764160 
	C186.103043,355.419281 186.236145,343.074646 186.592270,330.465820 
z"/>
<path fill="#262625" opacity="1.000000" stroke="none" 
	d="
M81.934723,147.919205 
	C76.268204,148.731598 70.601700,149.544006 64.486542,150.431198 
	C64.143196,146.246033 64.248497,141.986084 64.579536,137.472534 
	C64.835693,138.202042 64.859985,139.185379 64.897530,140.168228 
	C65.144684,146.638519 65.921143,147.245438 72.214828,146.526672 
	C75.134567,146.193207 78.092781,146.196671 81.492615,146.371307 
	C81.946014,147.103210 81.940369,147.511215 81.934723,147.919205 
z"/>
<path fill="#161615" opacity="1.000000" stroke="none" 
	d="
M309.791199,17.809105 
	C309.648560,23.994209 309.318726,30.027384 308.973206,36.528011 
	C307.957001,36.993359 306.956451,36.991249 305.586151,36.985794 
	C305.212341,34.924652 305.208252,32.866867 305.240631,30.359825 
	C305.859467,27.111385 306.260223,24.256224 307.098755,21.536024 
	C307.535217,20.120178 308.744049,18.942455 309.791199,17.809105 
z"/>
<path fill="#262625" opacity="1.000000" stroke="none" 
	d="
M12.893198,44.324501 
	C13.281900,51.900845 13.538480,59.875069 13.771985,68.290649 
	C13.419633,60.728806 13.090354,52.725594 12.893198,44.324501 
z"/>
<path fill="#262625" opacity="1.000000" stroke="none" 
	d="
M13.863804,83.361198 
	C14.214580,89.881760 14.418643,96.791603 14.584311,104.120522 
	C14.269642,97.609886 13.993366,90.680191 13.863804,83.361198 
z"/>
<path fill="#262625" opacity="1.000000" stroke="none" 
	d="
M186.595596,219.424469 
	C186.663528,225.984146 186.484238,232.800140 186.174286,240.059204 
	C186.145203,233.561783 186.246780,226.621292 186.595596,219.424469 
z"/>
<path fill="#161615" opacity="1.000000" stroke="none" 
	d="
M336.765930,60.796135 
	C331.975037,61.369926 326.937744,61.717133 321.440125,62.049702 
	C325.929535,59.105564 331.155884,59.109585 336.765930,60.796135 
z"/>
<path fill="#161615" opacity="1.000000" stroke="none" 
	d="
M81.681412,29.920494 
	C78.341644,30.393871 74.615707,30.728167 70.432541,31.052696 
	C73.748619,30.622427 77.521919,30.201920 81.681412,29.920494 
z"/>
<path fill="#161615" opacity="1.000000" stroke="none" 
	d="
M305.284790,52.709297 
	C305.047729,49.963837 305.047089,46.953323 305.067352,43.494949 
	C307.547272,46.072826 307.589355,49.209923 305.284790,52.709297 
z"/>
<path fill="#161615" opacity="1.000000" stroke="none" 
	d="
M63.806274,31.002787 
	C61.085167,31.454241 57.977123,31.758469 54.424973,32.048222 
	C57.127022,31.641018 60.273182,31.248289 63.806274,31.002787 
z"/>
<path fill="#161615" opacity="1.000000" stroke="none" 
	d="
M17.938614,34.969971 
	C19.350994,36.509670 20.626274,37.938759 22.059677,39.654648 
	C20.447390,38.223759 18.676983,36.506062 16.906576,34.788368 
	C17.057411,34.750366 17.211542,34.672989 17.358173,34.685257 
	C17.509748,34.697941 17.654037,34.797699 17.938614,34.969971 
z"/>
<path fill="#161615" opacity="1.000000" stroke="none" 
	d="
M23.791595,46.991859 
	C22.344347,46.084026 20.777752,44.832829 18.984930,43.328232 
	C20.396551,44.266056 22.034401,45.457272 23.791595,46.991859 
z"/>
<path fill="#161615" opacity="1.000000" stroke="none" 
	d="
M88.812157,29.776794 
	C88.224342,29.975552 87.476814,30.012163 86.353836,30.045918 
	C86.869736,29.900259 87.761086,29.757456 88.812157,29.776794 
z"/>
<path fill="#000000" opacity="1.000000" stroke="none" 
	d="
M142.526611,436.135376 
	C148.890762,433.882294 155.469482,431.453827 162.230286,429.746307 
	C167.449982,428.427979 172.898041,428.013885 178.631958,427.117065 
	C179.381210,431.439209 179.858063,435.836273 180.080536,440.246124 
	C180.520020,448.957825 180.818726,457.676636 180.733505,466.668213 
	C178.165939,465.934296 176.040497,464.924622 173.915039,463.914948 
	C173.408127,463.411621 172.901230,462.908325 172.191544,462.231018 
	C162.265686,453.461456 152.542618,444.865906 142.526611,436.135376 
z"/>
<path fill="#161615" opacity="1.000000" stroke="none" 
	d="
M185.893555,423.325073 
	C186.076477,426.047424 186.045547,429.095764 186.045898,432.144135 
	C186.047348,444.781586 186.058258,457.419037 186.075287,470.525024 
	C185.398468,469.026794 184.149963,467.069000 184.118164,465.091675 
	C183.931747,453.500366 183.943634,441.903259 184.106735,430.311188 
	C184.138077,428.084137 185.139938,425.870758 185.893555,423.325073 
z"/>
<path fill="#262625" opacity="1.000000" stroke="none" 
	d="
M293.592285,227.306000 
	C293.350891,218.782990 293.296295,210.006454 293.297638,200.799988 
	C293.896637,202.222549 294.941162,204.087936 294.893829,205.925201 
	C294.712280,212.972519 294.180298,220.010818 293.592285,227.306000 
z"/>
<path fill="#161615" opacity="1.000000" stroke="none" 
	d="
M174.040512,464.252014 
	C176.040497,464.924622 178.165939,465.934296 180.642242,467.021667 
	C177.284027,470.160828 175.588013,467.747528 174.040512,464.252014 
z"/>
<path fill="#000000" opacity="1.000000" stroke="none" 
	d="
M268.318359,452.944214 
	C268.859283,452.645569 269.717102,452.294495 270.819763,452.002319 
	C270.254883,452.338074 269.445099,452.614960 268.318359,452.944214 
z"/>
<path fill="#000000" opacity="1.000000" stroke="none" 
	d="
M310.997925,94.975479 
	C321.226105,94.360130 331.450409,93.362076 341.683777,93.258141 
	C349.039001,93.183456 355.344269,96.931435 361.762146,101.477325 
	C368.869446,108.118408 374.823853,115.245369 384.415955,118.019455 
	C387.497650,118.817284 390.217224,119.517838 392.952667,120.149826 
	C396.960876,121.075867 400.980377,121.952812 404.995087,122.850677 
	C404.997650,123.328117 405.000183,123.805550 404.804749,124.834076 
	C404.419067,126.612915 404.231384,127.840660 404.043701,129.068420 
	C403.835083,129.615784 403.626434,130.163162 403.307068,131.432556 
	C403.344452,138.543167 403.492554,144.931763 403.640686,151.320374 
	C401.735748,152.527557 399.830841,153.734726 397.524536,154.969086 
	C389.592499,152.510696 382.105103,149.883652 374.523010,147.566513 
	C353.266083,141.070221 331.970123,134.701813 310.318542,127.728912 
	C309.730774,118.276863 309.412964,109.379211 309.380402,100.480522 
	C309.373688,98.647499 310.431030,96.810593 310.997925,94.975479 
z"/>
<path fill="#262625" opacity="1.000000" stroke="none" 
	d="
M288.001892,166.963943 
	C274.550751,161.745697 261.116821,156.130371 247.696777,150.482010 
	C247.158997,150.255676 246.752975,149.716309 246.612259,148.580978 
	C260.655243,152.857300 273.912659,159.093338 287.744507,164.787476 
	C288.041687,165.488327 288.031616,166.024673 288.001892,166.963943 
z"/>
<path fill="#262625" opacity="1.000000" stroke="none" 
	d="
M404.983337,122.435425 
	C400.980377,121.952812 396.960876,121.075867 392.952667,120.149826 
	C390.217224,119.517838 387.497650,118.817284 384.325928,117.825760 
	C383.929504,116.650642 383.978088,115.797150 384.026672,114.943665 
	C390.722168,115.912567 397.417664,116.881470 404.554443,117.823166 
	C404.987640,119.204025 404.979614,120.612106 404.983337,122.435425 
z"/>
<path fill="#262625" opacity="1.000000" stroke="none" 
	d="
M403.792786,151.083618 
	C403.492554,144.931763 403.344452,138.543167 403.224792,131.713654 
	C406.411194,137.694016 404.992401,144.276993 403.792786,151.083618 
z"/>
<path fill="#000000" opacity="1.000000" stroke="none" 
	d="
M404.178955,128.744507 
	C404.231384,127.840660 404.419067,126.612915 404.804321,125.192162 
	C404.772705,126.139641 404.543457,127.280121 404.178955,128.744507 
z"/>
<path fill="#000000" opacity="1.000000" stroke="none" 
	d="
M388.495575,327.510803 
	C388.517517,327.504395 388.473633,327.517212 388.495575,327.510803 
z"/>
<path fill="#000000" opacity="1.000000" stroke="none" 
	d="
M339.769958,342.732239 
	C340.630707,338.493164 341.412811,334.664154 342.194916,330.835175 
	C342.767242,330.707672 343.339539,330.580139 343.911835,330.452637 
	C347.017456,336.353149 350.174774,342.227875 353.150269,348.193298 
	C353.454376,348.803009 352.762970,350.693542 352.373016,350.743774 
	C348.500854,351.242584 344.552826,351.858887 340.737549,351.436615 
	C340.056641,351.361206 339.874115,346.676300 339.495789,344.114746 
	C339.450317,343.806976 339.620911,343.467255 339.769958,342.732239 
z"/>
<path fill="#131313" opacity="1.000000" stroke="none" 
	d="
M295.926025,182.713760 
	C293.682281,181.706238 292.920319,180.103729 295.646423,177.987457 
	C295.904449,179.290787 295.922546,180.779053 295.926025,182.713760 
z"/>
<path fill="#161615" opacity="1.000000" stroke="none" 
	d="
M232.208878,387.635193 
	C239.215561,387.531403 239.906967,386.868866 239.936050,379.851013 
	C239.963654,373.188629 239.836792,366.524902 239.923523,359.863678 
	C239.979385,355.572601 237.954422,353.752869 233.786774,354.048553 
	C233.289337,354.083862 232.743774,354.189331 232.295242,354.039124 
	C230.092102,353.301422 227.914215,352.488281 225.727417,351.701782 
	C226.669312,349.661713 227.611206,347.621613 228.159698,346.433655 
	C226.988113,342.002289 225.629150,337.938690 224.991501,333.764862 
	C224.810730,332.581604 226.734161,331.076843 227.692596,329.719543 
	C228.777374,330.988159 230.469543,332.104095 230.833908,333.553772 
	C231.960281,338.035278 233.082733,342.269257 238.728622,343.784088 
	C239.163437,342.637024 239.826035,341.650177 239.880066,340.631104 
	C240.575882,327.504364 241.253494,314.375824 241.776871,301.241364 
	C241.948563,296.932709 239.623474,295.562531 235.634781,297.264832 
	C231.218948,299.149353 228.498077,304.657806 229.467026,310.287354 
	C229.916290,312.897583 231.061066,315.390015 231.486694,318.001648 
	C231.713516,319.393463 231.079788,320.925507 230.834442,322.394287 
	C229.061935,321.858856 226.396362,321.880463 225.659500,320.699066 
	C220.212067,311.965363 220.382645,296.169952 232.463959,290.945679 
	C233.838760,290.351105 235.552933,290.173370 236.580566,289.227509 
	C238.259689,287.681915 240.564484,285.700409 240.629730,283.833740 
	C240.693878,281.998749 238.584183,279.750549 236.904892,278.282562 
	C235.070496,276.678986 232.582977,275.846832 230.471375,274.531891 
	C221.534317,268.966705 220.710922,257.697449 224.205292,248.737778 
	C224.659393,247.573471 225.102570,246.404907 225.773148,244.659607 
	C221.047379,245.154083 216.979630,245.896118 212.921082,245.848846 
	C211.294800,245.829880 208.623260,244.346939 208.291870,243.052917 
	C207.567734,240.225281 209.546234,238.457855 212.540558,238.188293 
	C220.162689,237.502060 227.807800,236.997116 235.394089,236.030258 
	C237.730087,235.732544 239.905899,234.177917 241.438614,233.510696 
	C245.563721,233.963303 249.441956,234.671387 253.328949,234.723389 
	C256.290741,234.762985 259.272705,233.608124 262.228180,233.682434 
	C264.023712,233.727570 265.785889,235.099304 267.563049,235.875122 
	C266.495941,237.656006 265.482330,239.472778 264.327698,241.195007 
	C263.998688,241.685730 263.259857,241.901703 262.270996,242.515579 
	C262.970337,243.704025 263.515533,244.827072 264.235352,245.824036 
	C273.767731,259.026428 265.728363,277.223816 249.587646,278.938538 
	C248.925461,279.008911 248.036255,278.785828 247.634277,279.136627 
	C246.067429,280.503967 243.795486,281.886749 243.478256,283.580688 
	C243.257324,284.760590 245.569626,287.307831 247.154373,287.731049 
	C249.764603,288.428040 252.706055,287.990143 255.500122,287.861633 
	C257.978607,287.747650 260.464325,287.090759 262.915253,287.229858 
	C267.378937,287.483246 268.092255,289.297943 266.481110,293.480927 
	C265.908752,294.966919 266.306854,297.173981 266.990753,298.731903 
	C269.105499,303.549347 270.825195,308.309540 269.189270,313.657867 
	C267.315399,319.783966 262.526978,323.863495 257.069977,323.878601 
	C251.734818,323.893372 246.130005,319.198822 244.546982,313.366852 
	C244.340271,312.605316 244.230988,311.817322 243.159103,311.075500 
	C243.159103,321.109039 242.973068,331.150146 243.382172,341.166962 
	C243.436539,342.498138 246.459610,344.676056 248.202484,344.773743 
	C252.135437,344.994202 256.126770,344.149414 260.095947,343.754028 
	C262.967438,343.467987 266.768311,341.993347 267.376587,346.363617 
	C267.978882,350.691162 263.817108,350.494751 261.050323,350.967407 
	C257.120605,351.638702 253.119980,351.903259 249.145798,352.303467 
	C245.023849,352.718628 242.850739,354.697998 242.956161,359.108673 
	C243.111313,365.600220 242.988525,372.098175 242.997940,378.593414 
	C243.009109,386.304840 243.409256,386.707062 251.213470,387.089874 
	C247.223251,387.716553 243.188660,388.389038 239.131958,388.572449 
	C236.843079,388.675934 234.517776,387.974213 232.208878,387.635193 
M243.950531,259.409760 
	C243.776016,262.212738 243.904083,265.077148 243.350723,267.803223 
	C242.652802,271.241547 244.464722,272.640594 247.010468,271.610474 
	C251.313202,269.869385 256.010315,267.948547 259.138580,264.736786 
	C263.544708,260.212982 262.572876,254.463135 259.561951,249.047379 
	C256.939789,244.330887 252.862518,243.006119 247.878815,243.174896 
	C245.011490,243.271988 243.674667,244.534561 243.815964,247.515533 
	C243.988388,251.153625 243.921616,254.803055 243.950531,259.409760 
M229.754044,261.423798 
	C231.601074,263.895691 233.067886,266.831909 235.385239,268.729431 
	C238.771103,271.501923 240.831787,270.361572 241.006592,265.881104 
	C241.213593,260.575714 241.283737,255.242065 240.944107,249.950775 
	C240.826263,248.114716 239.593964,245.176956 238.356537,244.879211 
	C236.764557,244.496155 234.174911,245.807770 232.861237,247.192307 
	C229.317047,250.927673 228.495728,255.632431 229.754044,261.423798 
M262.275665,303.506897 
	C260.378174,300.885712 258.815643,297.883179 256.444885,295.800781 
	C255.220322,294.725159 252.211014,294.566559 250.656616,295.324158 
	C249.346863,295.962555 248.255127,298.559631 248.339310,300.225372 
	C248.504074,303.485535 249.326996,306.772156 250.303741,309.915314 
	C251.340103,313.250305 253.337280,316.158997 257.399689,315.521637 
	C261.627502,314.858307 262.619598,311.377655 262.887360,307.711243 
	C262.970001,306.579651 262.643646,305.418213 262.275665,303.506897 
z"/>
<path fill="#161615" opacity="1.000000" stroke="none" 
	d="
M244.149216,186.986984 
	C244.751053,189.343216 245.766174,191.681000 245.872360,194.059357 
	C246.127029,199.763306 245.954712,205.486313 245.954712,211.201614 
	C245.309494,211.211792 244.664261,211.221954 244.019043,211.232132 
	C244.019043,207.733154 244.067261,204.233383 244.008163,200.735397 
	C243.910522,194.955139 242.544022,193.987061 236.999451,195.625259 
	C232.179428,197.049393 229.491211,200.522430 228.445023,205.175110 
	C227.466904,209.525131 228.586761,213.511108 232.143433,216.430588 
	C234.605240,218.451355 237.255035,219.762772 238.979156,216.250229 
	C240.221207,218.480042 241.526566,220.823532 242.831940,223.167023 
	C244.315979,221.023651 245.800003,218.880280 247.311081,216.697815 
	C251.338470,219.167023 256.029388,217.761719 258.928497,212.303711 
	C261.837830,206.826416 261.752289,201.116730 259.470490,195.409760 
	C259.039459,194.331741 258.086060,193.254318 258.160950,192.234451 
	C258.256775,190.929977 258.839172,189.104965 259.796173,188.589905 
	C260.612915,188.150345 262.714355,188.850388 263.462708,189.720932 
	C272.630066,200.385254 266.780151,221.067535 253.412994,225.248550 
	C247.700424,227.035339 242.029831,228.449066 235.855103,226.256577 
	C226.699265,223.005539 221.418274,216.915756 221.258865,208.183929 
	C221.097031,199.319962 227.235733,191.114777 236.096878,188.404984 
	C237.686600,187.918854 239.318726,187.571350 241.702209,187.083649 
	C243.031830,187.000641 243.590515,186.993805 244.149216,186.986984 
z"/>
<path fill="#131313" opacity="1.000000" stroke="none" 
	d="
M232.176620,387.206787 
	C234.517776,387.974213 236.843079,388.675934 239.131958,388.572449 
	C243.188660,388.389038 247.223251,387.716553 251.655273,387.108276 
	C261.397034,384.231323 264.420074,377.315247 264.074585,367.806183 
	C267.846100,369.421051 269.610992,371.793610 269.905457,375.453003 
	C270.372833,381.260223 269.655609,386.922058 263.962036,389.653839 
	C259.424530,391.830994 254.223251,392.647095 249.288528,393.962036 
	C247.533264,394.429779 245.695374,394.587463 243.163086,394.852905 
	C240.317474,394.857635 238.203979,394.896088 236.090454,394.934540 
	C234.716934,396.640167 233.360992,398.360382 231.963425,400.046082 
	C231.094376,401.094330 230.274124,402.751190 229.227692,402.928345 
	C228.126968,403.114655 226.019257,402.138763 225.677368,401.191956 
	C224.205826,397.116913 220.991974,397.270691 217.620850,396.837311 
	C215.817596,396.605499 214.193130,394.983002 212.487976,393.988098 
	C213.981735,392.534821 215.234833,390.323578 217.010956,389.759644 
	C224.641357,387.336945 224.695663,387.513275 225.102676,379.676331 
	C225.145660,378.848694 224.954117,377.859497 225.337021,377.227234 
	C226.431992,375.419189 227.766830,373.756409 229.007324,372.036499 
	C229.953537,373.802216 231.410217,375.480652 231.730423,377.353394 
	C232.256256,380.428741 232.044891,383.630127 232.176620,387.206787 
z"/>
<path fill="#262625" opacity="1.000000" stroke="none" 
	d="
M243.417953,412.516327 
	C257.582947,421.764343 271.747955,431.012329 286.036987,440.879913 
	C286.108490,441.738159 286.055939,441.976807 286.003418,442.215485 
	C279.219330,438.145752 272.376404,434.170197 265.668671,429.978302 
	C259.622375,426.199738 253.640289,422.304626 247.789139,418.232117 
	C243.699554,415.385742 239.516296,414.547058 234.618942,415.595062 
	C231.914276,416.173859 228.984085,415.698792 226.155563,415.698792 
	C226.119720,415.237457 226.083893,414.776154 226.048050,414.314819 
	C230.350311,413.487152 234.652557,412.659485 239.715591,411.872192 
	C241.456894,412.113831 242.437424,412.315094 243.417953,412.516327 
z"/>
<path fill="#262625" opacity="1.000000" stroke="none" 
	d="
M244.134033,186.519485 
	C243.590515,186.993805 243.031830,187.000641 242.053238,186.986298 
	C241.656540,175.713226 241.650909,164.461136 241.730255,153.209656 
	C241.744080,151.248581 242.115982,149.290039 242.947662,147.060318 
	C243.844498,146.877914 244.116196,146.965530 244.387909,147.053131 
	C244.298218,160.052750 244.208542,173.052368 244.134033,186.519485 
z"/>
<path fill="#262625" opacity="1.000000" stroke="none" 
	d="
M249.023926,145.973633 
	C248.201553,146.089096 247.379181,146.204575 246.213531,146.036362 
	C245.895065,145.481995 245.919876,145.211304 245.944672,144.940628 
	C256.662750,142.054352 267.380829,139.168076 278.503235,136.568497 
	C278.929413,137.226227 278.951263,137.597260 278.973145,137.968307 
	C269.155457,140.576279 259.337769,143.184250 249.257553,145.895996 
	C248.995010,145.999786 249.023926,145.973633 249.023926,145.973633 
z"/>
<path fill="#161615" opacity="1.000000" stroke="none" 
	d="
M243.350037,412.091919 
	C242.437424,412.315094 241.456894,412.113831 240.122009,411.785400 
	C239.835129,407.828186 240.238327,403.961151 239.822342,400.184387 
	C239.626907,398.409912 237.854645,396.809082 236.443695,395.032043 
	C238.203979,394.896088 240.317474,394.857635 242.779373,394.956421 
	C243.179214,400.618286 243.230652,406.142883 243.350037,412.091919 
z"/>
<path fill="#262625" opacity="1.000000" stroke="none" 
	d="
M209.643341,418.000214 
	C211.219849,418.092468 212.404205,418.228546 213.588577,418.364624 
	C213.616531,418.863556 213.644501,419.362518 213.672470,419.861450 
	C207.773804,421.030548 201.875122,422.199646 195.183105,423.525940 
	C197.523621,419.795868 198.748734,419.386993 209.643341,418.000214 
z"/>
<path fill="#161615" opacity="1.000000" stroke="none" 
	d="
M279.348267,137.893021 
	C278.951263,137.597260 278.929413,137.226227 278.882080,136.579529 
	C281.318176,135.346085 283.779755,134.388306 286.527283,133.254883 
	C287.208893,133.049698 287.604492,133.020142 288.291199,132.985321 
	C288.594849,133.683456 288.800323,134.933945 288.590820,135.007843 
	C285.668213,136.038651 282.688873,136.908585 279.348267,137.893021 
z"/>
<path fill="#131313" opacity="1.000000" stroke="none" 
	d="
M286.147247,442.482788 
	C286.055939,441.976807 286.108490,441.738159 286.247955,441.142700 
	C288.127899,442.054047 289.920929,443.322174 291.849915,444.805542 
	C291.985901,445.020752 292.003754,444.994904 292.013611,444.981750 
	C290.112701,444.229126 288.201874,443.489624 286.147247,442.482788 
z"/>
<path fill="#161615" opacity="1.000000" stroke="none" 
	d="
M245.646439,145.002640 
	C245.919876,145.211304 245.895065,145.481995 245.818542,146.165207 
	C245.430969,146.709732 245.095139,146.841721 244.573608,147.013412 
	C244.116196,146.965530 243.844498,146.877914 243.161499,146.667740 
	C243.616211,146.051651 244.482208,145.558151 245.646439,145.002640 
z"/>
<path fill="#161615" opacity="1.000000" stroke="none" 
	d="
M240.517868,212.507050 
	C240.518234,212.493347 240.517502,212.520737 240.517868,212.507050 
z"/>
<path fill="#262625" opacity="1.000000" stroke="none" 
	d="
M248.982864,146.014984 
	C248.970718,146.030182 249.026169,146.020004 249.025055,145.996826 
	C249.023926,145.973633 248.995010,145.999786 248.982864,146.014984 
z"/>
<path fill="#141413" opacity="1.000000" stroke="none" 
	d="
M310.758545,94.731544 
	C310.431030,96.810593 309.373688,98.647499 309.380402,100.480522 
	C309.412964,109.379211 309.730774,118.276863 309.936462,127.654877 
	C309.285675,126.437141 308.329956,124.785751 308.072754,123.031929 
	C307.554352,119.496544 307.415985,115.905449 306.962402,111.886238 
	C306.554962,106.899963 306.305908,102.364777 306.052368,97.360390 
	C306.082062,96.102249 306.116211,95.313316 306.086884,94.291580 
	C306.488373,92.516701 306.953369,90.974632 307.628601,89.167656 
	C308.732239,90.764366 309.625702,92.625992 310.758545,94.731544 
z"/>
<path fill="#141413" opacity="1.000000" stroke="none" 
	d="
M82.324539,147.962433 
	C81.940369,147.511215 81.946014,147.103210 81.942917,146.389587 
	C87.334145,145.731201 92.734123,145.378433 98.604156,145.060303 
	C98.974983,145.661652 98.875740,146.228333 98.689758,147.225357 
	C93.306786,147.772339 88.010574,147.889008 82.324539,147.962433 
z"/>
<path fill="#141413" opacity="1.000000" stroke="none" 
	d="
M175.776550,139.119537 
	C175.739883,139.175934 175.411087,139.245010 174.992188,139.250610 
	C175.096207,139.168854 175.290298,139.150558 175.776550,139.119537 
z"/>
<path fill="#141413" opacity="1.000000" stroke="none" 
	d="
M307.542603,79.827888 
	C307.849731,80.692886 308.009491,81.575768 308.107178,82.718285 
	C307.853027,82.963676 307.660889,82.949440 307.180725,82.902496 
	C306.931763,82.126450 306.970825,81.383110 307.056091,80.266594 
	C307.102295,79.893410 307.395264,79.845764 307.542603,79.827888 
z"/>
<path fill="#161615" opacity="1.000000" stroke="none" 
	d="
M383.757141,114.740372 
	C383.978088,115.797150 383.929504,116.650642 383.970917,117.697830 
	C374.823853,115.245369 368.869446,108.118408 362.076477,101.648468 
	C362.260193,101.044899 362.611115,100.700737 363.240234,100.109924 
	C370.174805,104.754555 376.831207,109.645821 383.757141,114.740372 
z"/>
<path fill="#141413" opacity="1.000000" stroke="none" 
	d="
M102.085678,147.259674 
	C102.131592,147.216858 102.317062,147.197876 102.781616,147.162537 
	C102.791588,147.250061 102.513100,147.295837 102.085678,147.259674 
z"/>
<path fill="#141413" opacity="1.000000" stroke="none" 
	d="
M18.797909,115.957993 
	C18.481640,116.218529 17.965994,116.456825 17.174921,116.768768 
	C17.465839,116.540192 18.032187,116.237968 18.797909,115.957993 
z"/>
<path fill="#141413" opacity="1.000000" stroke="none" 
	d="
M21.499025,114.513580 
	C21.517550,114.510307 21.480501,114.516853 21.499025,114.513580 
z"/>
<path fill="#000000" opacity="1.000000" stroke="none" 
	d="
M316.185913,87.358780 
	C316.458038,88.562347 316.486420,89.578865 316.514771,90.595390 
	C314.657715,90.643906 312.630920,91.137939 311.025391,90.526260 
	C310.363770,90.274193 310.607666,87.645241 310.439697,86.097382 
	C311.595215,86.001076 312.776764,85.718658 313.897064,85.874908 
	C314.624908,85.976425 315.263550,86.717316 316.185913,87.358780 
z"/>
<path fill="#000000" opacity="1.000000" stroke="none" 
	d="
M243.954407,258.928650 
	C243.921616,254.803055 243.988388,251.153625 243.815964,247.515533 
	C243.674667,244.534561 245.011490,243.271988 247.878815,243.174896 
	C252.862518,243.006119 256.939789,244.330887 259.561951,249.047379 
	C262.572876,254.463135 263.544708,260.212982 259.138580,264.736786 
	C256.010315,267.948547 251.313202,269.869385 247.010468,271.610474 
	C244.464722,272.640594 242.652802,271.241547 243.350723,267.803223 
	C243.904083,265.077148 243.776016,262.212738 243.954407,258.928650 
z"/>
<path fill="#000000" opacity="1.000000" stroke="none" 
	d="
M229.641571,261.039032 
	C228.495728,255.632431 229.317047,250.927673 232.861237,247.192307 
	C234.174911,245.807770 236.764557,244.496155 238.356537,244.879211 
	C239.593964,245.176956 240.826263,248.114716 240.944107,249.950775 
	C241.283737,255.242065 241.213593,260.575714 241.006592,265.881104 
	C240.831787,270.361572 238.771103,271.501923 235.385239,268.729431 
	C233.067886,266.831909 231.601074,263.895691 229.641571,261.039032 
z"/>
<path fill="#000000" opacity="1.000000" stroke="none" 
	d="
M262.390106,303.888672 
	C262.643646,305.418213 262.970001,306.579651 262.887360,307.711243 
	C262.619598,311.377655 261.627502,314.858307 257.399689,315.521637 
	C253.337280,316.158997 251.340103,313.250305 250.303741,309.915314 
	C249.326996,306.772156 248.504074,303.485535 248.339310,300.225372 
	C248.255127,298.559631 249.346863,295.962555 250.656616,295.324158 
	C252.211014,294.566559 255.220322,294.725159 256.444885,295.800781 
	C258.815643,297.883179 260.378174,300.885712 262.390106,303.888672 
z"/>
</svg>